<svg width="156" height="31" viewBox="0 0 156 31" fill="none" xmlns="http://www.w3.org/2000/svg">
<rect width="55" height="30" rx="9" fill="url(#paint0_linear_41_214)" fill-opacity="0.92"/>
<g filter="url(#filter0_b_41_214)">
<path fill-rule="evenodd" clip-rule="evenodd" d="M46.7033 24.167L15.6876 23.8086C15.6876 23.8086 13.2346 24.0747 11.7455 23.1455C10.2565 22.2164 9.74023 21.5693 9.74023 21.5693C9.74023 21.5693 11.2095 23.1455 15.5772 23.1787C19.945 23.2119 46.7033 24.167 46.7033 24.167V24.167Z" fill="#FEFEFE"/>
<path fill-rule="evenodd" clip-rule="evenodd" d="M50.371 25.7932L7.51679 25.0042C7.51679 25.0042 7.27684 25.0203 7.19787 24.847C7.11885 24.6737 7.15831 24.5335 7.15831 24.5335C7.15831 24.5335 7.38826 21.5147 7.41483 20.3826C7.4414 19.2506 7.25551 17.1751 7.61406 16.72C7.97263 16.2649 8.34445 15.9098 8.54367 15.3993C8.7429 14.8887 8.78273 13.5125 9.3007 13.1462C9.81859 12.7799 11.0537 12.6912 12.0365 12.1806C13.0193 11.6701 16.3661 7.18624 17.2957 6.75335C18.2253 6.32046 23.365 5.77661 26.6985 5.56576C28.9409 5.42389 30.3789 5.55706 33.9991 5.64725C33.9991 5.64725 28.4915 4.73341 23.7767 5.07743C19.062 5.42147 16.8973 5.85431 16.1403 6.50916C15.3833 7.16398 11.8108 11.3149 11.8108 11.3149C11.8108 11.3149 10.9283 11.8927 10.1598 12.0752C9.39136 12.2576 8.56173 12.3962 8.22119 12.9144C7.88064 13.4325 7.64482 15.2642 7.313 15.6364C6.98118 16.0087 6.64054 16.2495 6.43973 16.8552C6.23892 17.4609 6.4223 20.6574 6.28257 21.9198C6.14283 23.1823 6.09045 24.9265 6.09045 24.9265C6.09045 24.9265 6.09042 25.3862 6.5707 25.5541C7.05099 25.7219 7.41775 25.6709 7.41775 25.6709L50.371 25.7932H50.371Z" fill="#FEFEFE"/>
<path fill-rule="evenodd" clip-rule="evenodd" d="M12.0626 10.5221C12.0626 10.5221 11.4433 10.434 11.2589 10.28C11.0745 10.1259 10.9044 9.99553 10.7484 9.97184C10.5924 9.94815 6.77077 10.3037 6.77077 10.3037C6.77077 10.3037 6.17513 10.3333 5.80646 10.7659C5.43778 11.1984 5.09035 11.9628 5.09035 11.9628C5.09035 11.9628 4.81383 12.4249 5.38814 12.6146C5.96244 12.8042 7.66413 12.5553 7.66413 12.5553C7.66413 12.5553 6.18932 12.4961 6.16808 12.1761C6.14681 11.8561 6.63608 11.068 7.11109 10.9555C7.58614 10.8429 10.7342 10.3867 10.8902 10.4578C11.0462 10.5288 11.2022 10.671 11.5071 10.6651C11.812 10.6592 12.0626 10.5221 12.0626 10.5221Z" fill="#FEFEFE"/>
<path fill-rule="evenodd" clip-rule="evenodd" d="M12.4421 12.2857C12.4421 12.2857 16.9772 11.387 26.2342 11.3284C35.4911 11.2698 40.1784 11.4938 40.1784 11.4938C40.1784 11.4938 31.1432 10.7619 24.855 10.8596C18.5668 10.9573 14.7564 11.1917 14.7564 11.1917L17.452 8.14616C17.452 8.14616 17.6925 7.79991 18.8286 7.54304C19.9647 7.28611 24.108 6.74037 27.6633 6.66217C31.2185 6.58393 33.8872 6.73016 33.8872 6.73016C33.8872 6.73016 30.5903 5.91375 25.5916 6.27119C20.5929 6.62858 17.4253 7.12973 17.4253 7.12973C17.4253 7.12973 17.1134 7.22082 16.8363 7.51216C16.5592 7.80354 14.0112 10.7996 13.5105 11.2628C13.0099 11.7261 12.4422 12.2857 12.4422 12.2857H12.4421Z" fill="#FEFEFE"/>
<path fill-rule="evenodd" clip-rule="evenodd" d="M19.3693 17.1875C19.3693 17.1875 17.2992 16.9729 15.3652 16.3794C13.4312 15.7859 11.7692 15.3692 10.9231 15.7228C10.0769 16.0764 10.1676 17.68 11.0439 18.1346C11.9203 18.5892 13.9147 18.968 15.1235 18.8796C16.3322 18.7912 17.4957 18.7154 17.4957 18.7154C17.4957 18.7154 14.8968 19.5993 12.2376 19.0311C9.57833 18.4629 8.95882 17.4906 9.45742 16.291C9.95605 15.0915 11.0288 14.8515 12.6758 15.1041C14.3227 15.3566 16.8913 16.3668 17.677 16.6194C18.4626 16.8719 19.3692 17.1876 19.3692 17.1876L19.3693 17.1875Z" fill="#FEFEFE"/>
<path fill-rule="evenodd" clip-rule="evenodd" d="M31.2772 22.7132L18.7037 22.786C18.7037 22.786 17.5207 22.819 16.7931 22.2278C16.0654 21.6365 16.4797 20.9946 17.3085 20.4709C18.1373 19.9472 20.1283 18.258 22.079 18.1397C24.0296 18.0215 32.24 18.3243 32.24 18.3243C32.24 18.3243 23.12 18.4692 22.0285 18.7648C20.9369 19.0603 20.1385 19.508 18.9863 20.3358C17.8341 21.1635 17.4803 21.2902 17.5612 21.569C17.6421 21.8477 18.5718 22.1686 19.6331 22.2193C20.6944 22.27 31.2771 22.7132 31.2771 22.7132L31.2772 22.7132Z" fill="#FEFEFE"/>
</g>
<path d="M64.0746 21V8.63636H72.2788V10.7915H66.6886V13.2063H68.6989C69.6768 13.2063 70.52 13.3653 71.2283 13.6832C71.9407 13.9972 72.4901 14.4419 72.8764 15.0174C73.2628 15.5929 73.456 16.2711 73.456 17.0518C73.456 17.8286 73.2628 18.5148 72.8764 19.1104C72.4901 19.7021 71.9407 20.1649 71.2283 20.4989C70.52 20.833 69.6768 21 68.6989 21H64.0746ZM66.6886 18.8991H68.6989C69.1657 18.8991 69.5601 18.8146 69.8821 18.6456C70.2041 18.4725 70.4476 18.2451 70.6126 17.9634C70.7816 17.6777 70.8661 17.3658 70.8661 17.0277C70.8661 16.5367 70.679 16.1222 70.3047 15.7841C69.9344 15.442 69.3991 15.271 68.6989 15.271H66.6886V18.8991ZM82.6276 21L78.6553 15.7298H77.7618V21H75.1478V8.63636H77.7618V13.5746H78.287L82.3921 8.63636H85.646L80.8225 14.3714L85.8694 21H82.6276ZM90.4484 21V18.8991L90.7986 18.869C91.2493 18.8327 91.6135 18.6617 91.8912 18.3558C92.1689 18.0459 92.3762 17.5529 92.5131 16.8768C92.6539 16.1966 92.7445 15.283 92.7847 14.136L92.99 8.63636H101.381V21H98.8398V10.7312H95.4168L95.2236 15.0355C95.1592 16.42 94.9942 17.5509 94.7286 18.4283C94.467 19.3056 94.0484 19.9536 93.4729 20.3722C92.9014 20.7907 92.1186 21 91.1246 21H90.4484ZM105.945 17.6072L109.284 11.7273H111.819V21H109.368V15.1019L106.042 21H103.488V11.7273H105.945V17.6072ZM113.404 18.3739H115.897C115.909 18.6798 116.046 18.9213 116.308 19.0984C116.569 19.2754 116.907 19.364 117.322 19.364C117.74 19.364 118.093 19.2674 118.378 19.0742C118.664 18.877 118.807 18.5953 118.807 18.229C118.807 18.0037 118.751 17.8085 118.638 17.6435C118.525 17.4744 118.368 17.3416 118.167 17.245C117.966 17.1484 117.732 17.1001 117.467 17.1001H116.133V15.4158H117.467C117.865 15.4158 118.171 15.3233 118.384 15.1381C118.602 14.953 118.71 14.7216 118.71 14.4439C118.71 14.13 118.598 13.8784 118.372 13.6893C118.151 13.4961 117.851 13.3995 117.473 13.3995C117.09 13.3995 116.772 13.486 116.519 13.6591C116.269 13.8281 116.141 14.0495 116.133 14.3232H113.651C113.659 13.7678 113.826 13.2868 114.152 12.8803C114.482 12.4738 114.925 12.1599 115.481 11.9386C116.04 11.7172 116.666 11.6065 117.358 11.6065C118.115 11.6065 118.767 11.7132 119.314 11.9265C119.865 12.1358 120.288 12.4356 120.582 12.826C120.88 13.2164 121.028 13.6812 121.028 14.2205C121.028 14.7115 120.868 15.122 120.546 15.4521C120.224 15.7821 119.773 16.0175 119.193 16.1584V16.255C119.576 16.2791 119.922 16.3817 120.232 16.5629C120.542 16.744 120.789 16.9935 120.974 17.3114C121.159 17.6254 121.252 17.9976 121.252 18.4283C121.252 19.0038 121.083 19.4968 120.745 19.9073C120.411 20.3178 119.948 20.6338 119.356 20.8551C118.769 21.0724 118.095 21.1811 117.334 21.1811C116.593 21.1811 115.929 21.0745 115.342 20.8612C114.758 20.6438 114.293 20.3259 113.947 19.9073C113.605 19.4888 113.424 18.9776 113.404 18.3739ZM125.286 17.6072L128.624 11.7273H131.16V21H128.709V15.1019L125.383 21H122.829V11.7273H125.286V17.6072ZM139.675 15.3374V17.3597H134.833V15.3374H139.675ZM135.679 11.7273V21H133.222V11.7273H135.679ZM141.287 11.7273V21H138.848V11.7273H141.287ZM149.633 11.7273V13.7496H145.781V21H143.282V11.7273H149.633Z" fill="#3F3F40"/>
<defs>
<filter id="filter0_b_41_214" x="1.0238" y="1" width="53.3472" height="28.793" filterUnits="userSpaceOnUse" color-interpolation-filters="sRGB">
<feFlood flood-opacity="0" result="BackgroundImageFix"/>
<feGaussianBlur in="BackgroundImageFix" stdDeviation="2"/>
<feComposite in2="SourceAlpha" operator="in" result="effect1_backgroundBlur_41_214"/>
<feBlend mode="normal" in="SourceGraphic" in2="effect1_backgroundBlur_41_214" result="shape"/>
</filter>
<linearGradient id="paint0_linear_41_214" x1="55" y1="15" x2="-1.60188e-07" y2="15" gradientUnits="userSpaceOnUse">
<stop stop-color="#0475DE"/>
<stop offset="1" stop-color="#86BBFF"/>
</linearGradient>
</defs>
</svg>
