<svg width="25" height="26" viewBox="0 0 25 26" fill="none" xmlns="http://www.w3.org/2000/svg">
<mask id="path-1-outside-1_4_155" maskUnits="userSpaceOnUse" x="0" y="0" width="25" height="26" fill="black">
<rect fill="white" width="25" height="26"/>
<path d="M22.5 13.5537V19.0537H16.8284C16.298 19.0537 15.7893 18.843 15.4142 18.4679L14.7915 17.8452C14.06 17.1137 14.007 15.9452 14.6693 15.1506L15.4003 14.2733C15.7803 13.8173 16.3432 13.5537 16.9367 13.5537H22.5Z"/>
<path d="M18.5 6.55369C18.5 6.55369 17.8482 3.66394 16.5 2.55369C13.531 0.108621 7.5 6.55369 7.5 6.55369H18.5Z"/>
</mask>
<path d="M6 3.92869C6.48325 3.92869 6.875 3.53694 6.875 3.05369C6.875 2.57044 6.48325 2.17869 6 2.17869V3.92869ZM3.41421 3.63948L4.03293 4.25819L3.41421 3.63948ZM1.58579 5.4679L2.20451 6.08662L1.58579 5.4679ZM1 6.88212L1.875 6.88212V6.88212L1 6.88212ZM1.00003 20.2687L0.125034 20.2687L1.00003 20.2687ZM1.47178 21.5588L2.14039 20.9944H2.14039L1.47178 21.5588ZM3.40074 23.8438L2.73213 24.4083L3.40074 23.8438ZM20.5 7.05369L19.9776 7.75564V7.75564L20.5 7.05369ZM21.5 8.55369H22.375V8.38397L22.3115 8.22657L21.5 8.55369ZM20.625 10.0537C20.625 10.5369 21.0167 10.9287 21.5 10.9287C21.9832 10.9287 22.375 10.5369 22.375 10.0537H20.625ZM6 2.17869H4.82843V3.92869H6V2.17869ZM2.7955 3.02076L0.96707 4.84918L2.20451 6.08662L4.03293 4.25819L2.7955 3.02076ZM0.125002 6.88212L0.125034 20.2687L1.87503 20.2687L1.875 6.88212L0.125002 6.88212ZM0.803165 22.1232L2.73213 24.4083L4.06935 23.2794L2.14039 20.9944L0.803165 22.1232ZM4.929 25.4287H17.86V23.6787H4.929V25.4287ZM21.735 21.5537V19.5H19.985V21.5537H21.735ZM18.5 6.55369C18.4875 7.4286 18.4873 7.4286 18.4872 7.4286C18.4872 7.4286 18.487 7.42859 18.487 7.42859C18.4868 7.42859 18.4867 7.42859 18.4865 7.42859C18.4863 7.42858 18.4861 7.42858 18.4861 7.42858C18.4859 7.42858 18.4861 7.42858 18.4865 7.42859C18.4874 7.42861 18.4896 7.42865 18.4929 7.42873C18.4995 7.4289 18.5106 7.42923 18.5259 7.42982C18.5565 7.43099 18.6033 7.43319 18.6623 7.43721C18.7812 7.4453 18.9449 7.46043 19.1239 7.48814C19.5256 7.55034 19.8388 7.65234 19.9776 7.75564L21.0224 6.35174C20.5153 5.97439 19.8286 5.8264 19.3917 5.75875C19.1514 5.72155 18.9362 5.7018 18.7811 5.69124C18.703 5.68593 18.6389 5.68286 18.593 5.6811C18.57 5.68022 18.5514 5.67966 18.5379 5.67931C18.5311 5.67914 18.5255 5.67902 18.5213 5.67893C18.5192 5.67889 18.5174 5.67886 18.5159 5.67883C18.5152 5.67882 18.5145 5.67881 18.5139 5.6788C18.5137 5.6788 18.5134 5.67879 18.5132 5.67879C18.513 5.67879 18.5129 5.67878 18.5128 5.67878C18.5127 5.67878 18.5125 5.67878 18.5 6.55369ZM19.9776 7.75564C20.1008 7.84731 20.2762 8.07944 20.4472 8.38671C20.5235 8.52394 20.5856 8.65138 20.6284 8.74435C20.6496 8.79046 20.6656 8.82714 20.6759 8.85113C20.6811 8.8631 20.6847 8.87184 20.6868 8.87694C20.6879 8.87949 20.6886 8.88112 20.6888 8.88179C20.689 8.88212 20.689 8.88221 20.6889 8.88205C20.6889 8.88197 20.6889 8.88183 20.6888 8.88162C20.6887 8.88152 20.6887 8.8814 20.6886 8.88126C20.6886 8.8812 20.6886 8.88108 20.6885 8.88105C20.6885 8.88093 20.6884 8.88081 21.5 8.55369C22.3115 8.22657 22.3115 8.22644 22.3114 8.2263C22.3114 8.22625 22.3114 8.22612 22.3113 8.22602C22.3112 8.22582 22.3112 8.2256 22.3111 8.22536C22.3109 8.2249 22.3107 8.22436 22.3104 8.22376C22.3099 8.22256 22.3093 8.22109 22.3086 8.21937C22.3072 8.21592 22.3054 8.21144 22.3031 8.20598C22.2986 8.19506 22.2923 8.18019 22.2845 8.16182C22.2687 8.12513 22.2464 8.07417 22.218 8.01249C22.1615 7.88989 22.0795 7.72114 21.9764 7.53591C21.7886 7.19825 21.464 6.68038 21.0224 6.35174L19.9776 7.75564ZM20.625 8.55369V10.0537H22.375V8.55369H20.625ZM17.86 25.4287C20.0001 25.4287 21.735 23.6938 21.735 21.5537H19.985C19.985 22.7273 19.0336 23.6787 17.86 23.6787V25.4287ZM2.73213 24.4083C3.27839 25.0553 4.08216 25.4287 4.929 25.4287V23.6787C4.59762 23.6787 4.28311 23.5326 4.06935 23.2794L2.73213 24.4083ZM0.125034 20.2687C0.125036 20.9476 0.365258 21.6045 0.803165 22.1232L2.14039 20.9944C1.96903 20.7914 1.87503 20.5343 1.87503 20.2687L0.125034 20.2687ZM0.96707 4.84918C0.427902 5.38835 0.124999 6.11962 0.125002 6.88212L1.875 6.88212C1.875 6.58375 1.99353 6.2976 2.20451 6.08662L0.96707 4.84918ZM4.82843 2.17869C4.06593 2.17869 3.33466 2.48159 2.7955 3.02076L4.03293 4.25819C4.24391 4.04722 4.53006 3.92869 4.82843 3.92869V2.17869ZM22.5 19.0537V20.8037H24.25V19.0537H22.5ZM22.5 13.5537H24.25V11.8037H22.5V13.5537ZM15.4003 14.2733L16.7447 15.3936L15.4003 14.2733ZM14.6693 15.1506L16.0136 16.2709L14.6693 15.1506ZM16.5 2.55369L15.3875 3.90457L15.3875 3.90457L16.5 2.55369ZM18.5 6.55369V8.30369H20.6887L20.2071 6.16862L18.5 6.55369ZM7.5 6.55369L6.22219 5.35798L3.46574 8.30369H7.5V6.55369ZM24.25 19.0537V13.5537H20.75V19.0537H24.25ZM22.5 11.8037H16.9367V15.3037H22.5V11.8037ZM14.0559 13.153L13.3249 14.0303L16.0136 16.2709L16.7447 15.3936L14.0559 13.153ZM13.554 19.0826L14.1768 19.7053L16.6517 17.2305L16.0289 16.6077L13.554 19.0826ZM16.8284 20.8037H22.5V17.3037H16.8284V20.8037ZM15.3875 3.90457C15.6853 4.14983 16.0536 4.77051 16.3724 5.59864C16.5147 5.9685 16.6223 6.31268 16.6941 6.56458C16.7297 6.68953 16.7558 6.78923 16.7724 6.85495C16.7807 6.88774 16.7865 6.91188 16.7899 6.92626C16.7916 6.93345 16.7927 6.93817 16.7932 6.94031C16.7935 6.94138 16.7936 6.94179 16.7935 6.94154C16.7935 6.94141 16.7934 6.94112 16.7933 6.94066C16.7933 6.94043 16.7932 6.94015 16.7931 6.93984C16.7931 6.93968 16.793 6.93941 16.793 6.93933C16.793 6.93905 16.7929 6.93876 18.5 6.55369C20.2071 6.16862 20.207 6.16831 20.207 6.16798C20.2069 6.16786 20.2069 6.16752 20.2068 6.16728C20.2067 6.16679 20.2066 6.16625 20.2064 6.16567C20.2062 6.1645 20.2059 6.16316 20.2055 6.16164C20.2048 6.1586 20.204 6.15486 20.2029 6.15042C20.2009 6.14155 20.1982 6.12992 20.1948 6.11567C20.188 6.08717 20.1785 6.04815 20.1663 5.99976C20.142 5.9031 20.1066 5.76837 20.06 5.60506C19.9675 5.28044 19.8279 4.83278 19.6388 4.34142C19.2945 3.44712 18.6628 2.0678 17.6125 1.20281L15.3875 3.90457ZM17.6125 1.20281C16.2742 0.100696 14.6816 0.114166 13.3931 0.455528C12.1234 0.791875 10.896 1.49921 9.88798 2.1997C8.85921 2.9146 7.94739 3.70161 7.30028 4.30029C6.97429 4.60189 6.70979 4.86101 6.5248 5.0468C6.4322 5.13981 6.35922 5.21475 6.3081 5.26782C6.28253 5.29436 6.2624 5.31546 6.248 5.33064C6.2408 5.33823 6.23502 5.34434 6.23071 5.34892C6.22855 5.35121 6.22676 5.35311 6.22534 5.35462C6.22463 5.35538 6.22402 5.35604 6.22349 5.3566C6.22323 5.35688 6.2229 5.35722 6.22277 5.35736C6.22247 5.35769 6.22219 5.35798 7.5 6.55369C8.7778 7.7494 8.77757 7.74964 8.77736 7.74987C8.77732 7.74991 8.77714 7.75011 8.77706 7.75019C8.7769 7.75036 8.77683 7.75043 8.77685 7.75041C8.7769 7.75036 8.7773 7.74994 8.77805 7.74914C8.77956 7.74754 8.78248 7.74444 8.78678 7.73991C8.79538 7.73085 8.80948 7.71606 8.82881 7.69599C8.86748 7.65584 8.92697 7.59471 9.00508 7.51626C9.16152 7.35914 9.39137 7.13383 9.67718 6.86941C10.2537 6.33605 11.0352 5.66461 11.8853 5.07388C12.7561 4.46874 13.5931 4.02325 14.2893 3.83882C14.9666 3.65941 15.2413 3.78415 15.3875 3.90457L17.6125 1.20281ZM7.5 8.30369H18.5V4.80369H7.5V8.30369ZM14.1768 19.7053C14.88 20.4086 15.8339 20.8037 16.8284 20.8037V17.3037C16.7621 17.3037 16.6985 17.2774 16.6517 17.2305L14.1768 19.7053ZM13.3249 14.0303C12.0832 15.5202 12.1826 17.7112 13.554 19.0826L16.0289 16.6077C15.9375 16.5163 15.9309 16.3702 16.0136 16.2709L13.3249 14.0303ZM16.9367 11.8037C15.8238 11.8037 14.7684 12.298 14.0559 13.153L16.7447 15.3936C16.7922 15.3366 16.8626 15.3037 16.9367 15.3037V11.8037Z" fill="#303030" mask="url(#path-1-outside-1_4_155)"/>
</svg>
