<svg width="42" height="55" viewBox="0 0 42 55" fill="none" xmlns="http://www.w3.org/2000/svg">
<path d="M1 48.4763V23.089M1 1V3.69865M1 3.69865V3.69865C3.35983 5.00967 6.01485 5.69765 8.7144 5.69765H8.96341C11.485 5.69765 13.9745 5.13156 16.2481 4.04114L19.517 2.47342C21.5393 1.50352 23.7536 1 25.9965 1V1C27.8404 1 29.6685 1.34033 31.3888 2.0039L35.7826 3.69865V6.65217M1 3.69865V23.089M1 23.089C1 23.089 2.83884 25.5308 4.04348 26.6522C5.24811 27.7736 6.21739 27.9565 6.21739 27.9565" stroke="white" stroke-width="2" stroke-miterlimit="16" stroke-linecap="round" stroke-linejoin="round"/>
<path d="M6.21741 53.6935V28.3062M6.21741 6.21729V8.91594M6.21741 8.91594V8.91594C8.57724 10.227 11.2323 10.9149 13.9318 10.9149H14.1808C16.7024 10.9149 19.1919 10.3488 21.4655 9.25842L24.7344 7.69071C26.7567 6.72081 28.971 6.21729 31.2139 6.21729V6.21729C33.0578 6.21729 34.8859 6.55762 36.6062 7.22119L41 8.91594V31.3047L36.6022 29.42C34.8876 28.6851 33.0416 28.3062 31.1762 28.3062V28.3062C28.9625 28.3062 26.7813 28.8398 24.8175 29.8618L20.3432 32.1903C18.8113 32.9875 17.1099 33.4037 15.383 33.4037V33.4037C11.8918 33.4037 8.61829 31.7075 6.60497 28.8553L6.21741 28.3062M6.21741 8.91594V28.3062" stroke="white" stroke-width="2" stroke-miterlimit="16" stroke-linecap="round" stroke-linejoin="round"/>
</svg>
