<svg width="41" height="55" viewBox="0 0 41 55" fill="none" xmlns="http://www.w3.org/2000/svg">
<path d="M3.4779 30.3039L9.3635 21.2682C10.5144 19.5014 11.1271 17.4382 11.1271 15.3296C11.1271 13.9763 10.8746 12.6348 10.3826 11.3741L8.49818 6.54522C7.99282 5.25026 8.23903 3.77026 9.12434 2.69856C9.51674 2.22356 10.0249 1.84754 10.5952 1.61426C11.553 1.22241 12.6304 1.24524 13.5708 1.67731L14.1374 1.93761C15.3832 2.51 16.8052 2.56456 18.0911 2.0893L18.9615 1.76764C20.2944 1.27507 21.7661 1.31707 23.0686 1.88486L23.3275 1.99771C24.5486 2.52996 25.9348 2.53633 27.1607 2.01533L27.892 1.70455C28.9276 1.26441 30.1147 1.37125 31.0551 1.98922C32.3774 2.85816 32.9153 4.53117 32.3473 6.00797L30.2558 11.4458C29.7891 12.6594 29.5497 13.9617 29.5497 15.2619C29.5497 17.3983 30.1844 19.5085 31.3732 21.2836L37.4144 30.3039L38.4547 32.3411C39.4704 34.3303 40 36.5319 40 38.7654C40 39.8719 39.87 40.9746 39.6126 42.0508L39.5711 42.2243C39.0726 44.3091 38.1393 46.265 36.8324 47.964C36.0031 49.0421 35.0331 50.0041 33.9482 50.8244L33.7993 50.937C32.0639 52.2491 30.0665 53.1724 27.9428 53.6444C26.8626 53.8844 25.7594 54.0055 24.6529 54.0055H15.6693C14.4418 54.0055 13.2195 53.8474 12.0325 53.535C10.5057 53.1332 9.0561 52.4812 7.7425 51.6055L6.98483 51.1004C6.0157 50.4543 5.13545 49.684 4.36658 48.809C3.07186 47.3357 2.11831 45.5948 1.57395 43.7105L1.5431 43.6037C1.18283 42.3566 1 41.065 1 39.7669V39.3123C1 36.7167 1.59309 34.1554 2.73399 31.824L3.4779 30.3039Z" stroke="white" stroke-width="2" stroke-miterlimit="16" stroke-linecap="round" stroke-linejoin="round"/>
<path d="M17 46V35.5M17 35.5V26H24.2344C25.0638 26 25.8788 26.2164 26.5988 26.6279L26.6991 26.6852C28.1219 27.4982 29 29.0113 29 30.65V30.65C29 32.1248 28.2878 33.5087 27.0877 34.3659L26.8431 34.5406C25.9696 35.1646 24.9229 35.5 23.8494 35.5H17ZM14 40H20.5M11 13.5H29.5V17.5H11V13.5Z" stroke="white" stroke-width="2" stroke-miterlimit="16" stroke-linecap="round" stroke-linejoin="round"/>
</svg>
