<svg width="52" height="41" viewBox="0 0 52 41" fill="none" xmlns="http://www.w3.org/2000/svg">
<path d="M2.66663 8.08325H49.3333" stroke="white" stroke-width="2" stroke-linecap="round"/>
<rect x="5.16663" y="13.5" width="5.83333" height="4.16667" rx="1" fill="white"/>
<mask id="path-3-inside-1_29_46" fill="white">
<path fill-rule="evenodd" clip-rule="evenodd" d="M4 0C1.79086 0 0 1.79086 0 4V30.5C0 32.7069 1.78362 34.5 3.99495 34.5H4.02053H4.04619H4.07194H4.09776H4.12367H4.14966H4.17573H4.20188H4.22811H4.25442H4.28081H4.30728H4.33383H4.36045H4.38716H4.41394H4.4408H4.46774H4.49475H4.52184H4.54901H4.57625H4.60357H4.63096H4.65843H4.68597H4.71358H4.74127H4.76904H4.79687H4.82478H4.85276H4.88081H4.90893H4.93713H4.96539H4.99373H5.02214H5.05061H5.07916H5.10777H5.13646H5.16521H5.19403H5.22292H5.25187H5.2809H5.30998H5.33914H5.36836H5.39765H5.427H5.45642H5.4859H5.51544H5.54505H5.57473H5.60446H5.63426H5.66412H5.69405H5.72403H5.75408H5.78419H5.81436H5.84459H5.87488H5.90523H5.93564H5.9661H5.99663H6.02722H6.05786H6.08856H6.11932H6.15013H6.181H6.21193H6.24291H6.27395H6.30504H6.33619H6.3674H6.39865H6.42997H6.46133H6.49275H6.52422H6.55574H6.58732H6.61894H6.65062H6.68235H6.71413H6.74596H6.77784H6.80977H6.84175H6.87378H6.90585H6.93798H6.97015H7.00237H7.03464H7.06695H7.09931H7.13172H7.16417H7.19667H7.22921H7.2618H7.29443H7.32711H7.35983H7.39259H7.4254H7.45825H7.49114H7.52407H7.55704H7.59006H7.62312H7.65622H7.68935H7.72253H7.75575H7.78901H7.8223H7.85563H7.88901H7.92242H7.95586H7.98935H8.02287H8.05643H8.09002H8.12365H8.15731H8.19101H8.22474H8.25851H8.29232H8.32615H8.36002H8.39392H8.42786H8.46182H8.49582H8.52985H8.56391H8.59801H8.63213H8.66628H8.70046H8.73468H8.76892H8.80319H8.83748H8.87181H8.90616H8.94055H8.97495H9.00939H9.04385H9.07834H9.11285H9.14739H9.18195H9.21654H9.25115H9.28579H9.32044H9.35513H9.38983H9.42456H9.45931H9.49408H9.52887H9.56369H9.59852H9.63338H9.66825H9.70315H9.73806H9.77299H9.80794H9.84291H9.8779H9.91291H9.94793H9.98297H10.018H10.0531H10.0882H10.1233H10.1584H10.1935H10.2287H10.2639H10.299H10.3342H10.3694H10.4046H10.4399H10.4751H10.5104H10.5456H10.5809H10.6162H10.6515H10.6868H10.7221H10.7574H10.7927H10.8281H10.8634H10.8988H10.9341H10.9695H11.0049H11.0403H11.0757H11.1111H11.1465H11.1819H11.2173H11.2527H11.2881H11.3236H11.359H11.3944H11.4298H11.4653H11.5007H11.5361H11.5716H11.607H11.6425H11.6779H11.7134H11.7488H11.7842H11.8197H11.8551H11.8905H11.926H11.9614H11.9968H12.0323H12.0677H12.1031H12.1385H12.1739H12.2093H12.2447H12.2801H12.3155H12.3509H12.3862H12.4216H12.457H12.4923H12.5276H12.563H12.5983H12.6336H12.6689H12.7042H12.7395H12.7748H12.81H12.8453H12.8805H12.9158H12.951H12.9862H13.0214H13.0565H13.0917H13.1269H13.162H13.1971H13.2322H13.2673H13.3024H13.3374H13.3725H13.4075H13.4425H13.4775H13.5125H13.5474H13.5824H13.6173H13.6522H13.687H13.7219H13.7567H13.7915H13.8263H13.8611H13.8959H13.9306H13.9653H14H14.0346H14.0693H14.1039H14.1385H14.173H14.2076H14.2421H14.2766H14.3111H14.3455H14.3799H14.4143H14.4486H14.483H14.5173H14.5515H14.5858H14.62H14.6542H14.6883H14.7225H14.7565H14.7906H14.8246H14.8586H14.8926H14.9265H14.9605H14.9943H15.0282H15.062H15.0957H15.1295H15.1632H15.1968H15.2305H15.2641H15.2976H15.3312H15.3646H15.3981H15.4315H15.4649H15.4982H15.5315H15.5648H15.598H15.6312H15.6643H15.6974H15.7305H15.7635H15.7965H15.8294H15.8623H15.8951H15.9279H15.9607H15.9934H16.0261H16.0588H16.0913H16.1239H16.1564H16.1888H16.2213H16.2536H16.2859H16.3182H16.3504H16.3826H16.4147H16.4468H16.4788H16.5108H16.5428H16.5746H16.6065H16.6383H16.67H16.7017H16.7333H16.7649H16.7964H16.8279H16.8593H16.8907H16.922H16.9532H16.9844H17.0156H17.0467H17.0777H17.1087H17.1397H17.1705H17.2013H17.2321H17.2628H17.2935H17.324H17.3546H17.385H17.4155H17.4458H17.4761H17.5063H17.5365H17.5666H17.5967H17.6267H17.6566H17.6865H17.7163H17.746H17.7757H17.8053H17.8348H17.8643H17.8937H17.9231H17.9524H17.9816H18.0108H18.0399H18.0689H18.0979H18.1268H18.1556H18.1843H18.213H18.2416H18.2702H18.2987H18.3271H18.3554H18.3837H18.4119H18.44H18.4681H18.4961H18.524H18.5518H18.5796H18.6073H18.6349H18.6624H18.6899H18.7173H18.7446H18.7719H18.799H18.8261H18.8532H18.8801H18.907H18.9338H18.9605H18.9871H19.0136H19.0401H19.0665H19.0928H19.1191H19.1452H19.1713H19.1973H19.2232H19.249H19.2748H19.3004H19.326H19.3515H19.3769H19.4023H19.4275H19.4527H19.4778H19.5028H19.5277H19.5525H19.5772H19.6019H19.6265H19.6509H19.6753H19.6996H19.7238H19.748H19.772H19.7959H19.8198H19.8436H19.8672H19.8908H19.9143H19.9377H19.961H19.9843H20.0074H20.0304H20.0534H20.0762H20.099H20.1216H20.1442H20.1667H21.1667V32.5H20.1667H20.1442H20.1216H20.099H20.0762H20.0534H20.0304H20.0074H19.9843H19.961H19.9377H19.9143H19.8908H19.8672H19.8436H19.8198H19.7959H19.772H19.748H19.7238H19.6996H19.6753H19.6509H19.6265H19.6019H19.5772H19.5525H19.5277H19.5028H19.4778H19.4527H19.4275H19.4023H19.3769H19.3515H19.326H19.3004H19.2748H19.249H19.2232H19.1973H19.1713H19.1452H19.1191H19.0928H19.0665H19.0401H19.0136H18.9871H18.9605H18.9338H18.907H18.8801H18.8532H18.8261H18.799H18.7719H18.7446H18.7173H18.6899H18.6624H18.6349H18.6073H18.5796H18.5518H18.524H18.4961H18.4681H18.44H18.4119H18.3837H18.3554H18.3271H18.2987H18.2702H18.2416H18.213H18.1843H18.1556H18.1268H18.0979H18.0689H18.0399H18.0108H17.9816H17.9524H17.9231H17.8937H17.8643H17.8348H17.8053H17.7757H17.746H17.7163H17.6865H17.6566H17.6267H17.5967H17.5666H17.5365H17.5063H17.4761H17.4458H17.4155H17.385H17.3546H17.324H17.2935H17.2628H17.2321H17.2013H17.1705H17.1397H17.1087H17.0777H17.0467H17.0156H16.9844H16.9532H16.922H16.8907H16.8593H16.8279H16.7964H16.7649H16.7333H16.7017H16.67H16.6383H16.6065H16.5746H16.5428H16.5108H16.4788H16.4468H16.4147H16.3826H16.3504H16.3182H16.2859H16.2536H16.2213H16.1888H16.1564H16.1239H16.0913H16.0588H16.0261H15.9934H15.9607H15.9279H15.8951H15.8623H15.8294H15.7965H15.7635H15.7305H15.6974H15.6643H15.6312H15.598H15.5648H15.5315H15.4982H15.4649H15.4315H15.3981H15.3646H15.3312H15.2976H15.2641H15.2305H15.1968H15.1632H15.1295H15.0957H15.062H15.0282H14.9943H14.9605H14.9265H14.8926H14.8586H14.8246H14.7906H14.7565H14.7225H14.6883H14.6542H14.62H14.5858H14.5515H14.5173H14.483H14.4486H14.4143H14.3799H14.3455H14.3111H14.2766H14.2421H14.2076H14.173H14.1385H14.1039H14.0693H14.0346H14H13.9653H13.9306H13.8959H13.8611H13.8263H13.7915H13.7567H13.7219H13.687H13.6522H13.6173H13.5824H13.5474H13.5125H13.4775H13.4425H13.4075H13.3725H13.3374H13.3024H13.2673H13.2322H13.1971H13.162H13.1269H13.0917H13.0565H13.0214H12.9862H12.951H12.9158H12.8805H12.8453H12.81H12.7748H12.7395H12.7042H12.6689H12.6336H12.5983H12.563H12.5276H12.4923H12.457H12.4216H12.3862H12.3509H12.3155H12.2801H12.2447H12.2093H12.1739H12.1385H12.1031H12.0677H12.0323H11.9968H11.9614H11.926H11.8905H11.8551H11.8197H11.7842H11.7488H11.7134H11.6779H11.6425H11.607H11.5716H11.5361H11.5007H11.4653H11.4298H11.3944H11.359H11.3236H11.2881H11.2527H11.2173H11.1819H11.1465H11.1111H11.0757H11.0403H11.0049H10.9695H10.9341H10.8988H10.8634H10.8281H10.7927H10.7574H10.7221H10.6868H10.6515H10.6162H10.5809H10.5456H10.5104H10.4751H10.4399H10.4046H10.3694H10.3342H10.299H10.2639H10.2287H10.1935H10.1584H10.1233H10.0882H10.0531H10.018H9.98297H9.94793H9.91291H9.8779H9.84291H9.80794H9.77299H9.73806H9.70315H9.66825H9.63338H9.59852H9.56369H9.52887H9.49408H9.45931H9.42456H9.38983H9.35513H9.32044H9.28579H9.25115H9.21654H9.18195H9.14739H9.11285H9.07834H9.04385H9.00939H8.97495H8.94055H8.90616H8.87181H8.83748H8.80319H8.76892H8.73468H8.70046H8.66628H8.63213H8.59801H8.56391H8.52985H8.49582H8.46182H8.42786H8.39392H8.36002H8.32615H8.29232H8.25851H8.22474H8.19101H8.15731H8.12365H8.09002H8.05643H8.02287H7.98935H7.95586H7.92242H7.88901H7.85563H7.8223H7.78901H7.75575H7.72253H7.68935H7.65622H7.62312H7.59006H7.55704H7.52407H7.49114H7.45825H7.4254H7.39259H7.35983H7.32711H7.29443H7.2618H7.22921H7.19667H7.16417H7.13172H7.09931H7.06695H7.03464H7.00237H6.97015H6.93798H6.90585H6.87378H6.84175H6.80977H6.77784H6.74596H6.71413H6.68235H6.65062H6.61894H6.58732H6.55574H6.52422H6.49275H6.46133H6.42997H6.39865H6.3674H6.33619H6.30504H6.27395H6.24291H6.21193H6.181H6.15013H6.11932H6.08856H6.05786H6.02722H5.99663H5.9661H5.93564H5.90523H5.87488H5.84459H5.81436H5.78419H5.75408H5.72403H5.69405H5.66412H5.63426H5.60446H5.57473H5.54505H5.51544H5.4859H5.45642H5.427H5.39765H5.36836H5.33914H5.30998H5.2809H5.25187H5.22292H5.19403H5.16521H5.13646H5.10777H5.07916H5.05061H5.02214H4.99373H4.96539H4.93713H4.90893H4.88081H4.85276H4.82478H4.79687H4.76904H4.74127H4.71358H4.68597H4.65843H4.63096H4.60357H4.57625H4.54901H4.52184H4.49475H4.46774H4.4408H4.41394H4.38716H4.36045H4.33383H4.30728H4.28081H4.25442H4.22811H4.20188H4.17573H4.14966H4.12367H4.09776H4.07194H4.04619H4.02053H3.99495C2.89258 32.5 2 31.6068 2 30.5V4C2 2.89543 2.89543 2 4 2H48C49.1046 2 50 2.89543 50 4V30.5833C50 31.6419 49.1419 32.5 48.0833 32.5V34.5C50.2464 34.5 52 32.7464 52 30.5833V4C52 1.79086 50.2091 0 48 0H4ZM23.6666 34.2365V16.5001C23.6666 14.8432 25.0098 13.5001 26.6666 13.5001H43.1666C44.8235 13.5001 46.1666 14.8432 46.1666 16.5001V34.2365C46.1666 35.1728 45.7306 36.0564 44.9442 36.5645C42.9496 37.8532 38.8247 40.1667 34.9166 40.1667C31.0086 40.1667 26.8836 37.8532 24.8891 36.5645C24.1026 36.0564 23.6666 35.1728 23.6666 34.2365Z"/>
</mask>
<path fill-rule="evenodd" clip-rule="evenodd" d="M4 0C1.79086 0 0 1.79086 0 4V30.5C0 32.7069 1.78362 34.5 3.99495 34.5H4.02053H4.04619H4.07194H4.09776H4.12367H4.14966H4.17573H4.20188H4.22811H4.25442H4.28081H4.30728H4.33383H4.36045H4.38716H4.41394H4.4408H4.46774H4.49475H4.52184H4.54901H4.57625H4.60357H4.63096H4.65843H4.68597H4.71358H4.74127H4.76904H4.79687H4.82478H4.85276H4.88081H4.90893H4.93713H4.96539H4.99373H5.02214H5.05061H5.07916H5.10777H5.13646H5.16521H5.19403H5.22292H5.25187H5.2809H5.30998H5.33914H5.36836H5.39765H5.427H5.45642H5.4859H5.51544H5.54505H5.57473H5.60446H5.63426H5.66412H5.69405H5.72403H5.75408H5.78419H5.81436H5.84459H5.87488H5.90523H5.93564H5.9661H5.99663H6.02722H6.05786H6.08856H6.11932H6.15013H6.181H6.21193H6.24291H6.27395H6.30504H6.33619H6.3674H6.39865H6.42997H6.46133H6.49275H6.52422H6.55574H6.58732H6.61894H6.65062H6.68235H6.71413H6.74596H6.77784H6.80977H6.84175H6.87378H6.90585H6.93798H6.97015H7.00237H7.03464H7.06695H7.09931H7.13172H7.16417H7.19667H7.22921H7.2618H7.29443H7.32711H7.35983H7.39259H7.4254H7.45825H7.49114H7.52407H7.55704H7.59006H7.62312H7.65622H7.68935H7.72253H7.75575H7.78901H7.8223H7.85563H7.88901H7.92242H7.95586H7.98935H8.02287H8.05643H8.09002H8.12365H8.15731H8.19101H8.22474H8.25851H8.29232H8.32615H8.36002H8.39392H8.42786H8.46182H8.49582H8.52985H8.56391H8.59801H8.63213H8.66628H8.70046H8.73468H8.76892H8.80319H8.83748H8.87181H8.90616H8.94055H8.97495H9.00939H9.04385H9.07834H9.11285H9.14739H9.18195H9.21654H9.25115H9.28579H9.32044H9.35513H9.38983H9.42456H9.45931H9.49408H9.52887H9.56369H9.59852H9.63338H9.66825H9.70315H9.73806H9.77299H9.80794H9.84291H9.8779H9.91291H9.94793H9.98297H10.018H10.0531H10.0882H10.1233H10.1584H10.1935H10.2287H10.2639H10.299H10.3342H10.3694H10.4046H10.4399H10.4751H10.5104H10.5456H10.5809H10.6162H10.6515H10.6868H10.7221H10.7574H10.7927H10.8281H10.8634H10.8988H10.9341H10.9695H11.0049H11.0403H11.0757H11.1111H11.1465H11.1819H11.2173H11.2527H11.2881H11.3236H11.359H11.3944H11.4298H11.4653H11.5007H11.5361H11.5716H11.607H11.6425H11.6779H11.7134H11.7488H11.7842H11.8197H11.8551H11.8905H11.926H11.9614H11.9968H12.0323H12.0677H12.1031H12.1385H12.1739H12.2093H12.2447H12.2801H12.3155H12.3509H12.3862H12.4216H12.457H12.4923H12.5276H12.563H12.5983H12.6336H12.6689H12.7042H12.7395H12.7748H12.81H12.8453H12.8805H12.9158H12.951H12.9862H13.0214H13.0565H13.0917H13.1269H13.162H13.1971H13.2322H13.2673H13.3024H13.3374H13.3725H13.4075H13.4425H13.4775H13.5125H13.5474H13.5824H13.6173H13.6522H13.687H13.7219H13.7567H13.7915H13.8263H13.8611H13.8959H13.9306H13.9653H14H14.0346H14.0693H14.1039H14.1385H14.173H14.2076H14.2421H14.2766H14.3111H14.3455H14.3799H14.4143H14.4486H14.483H14.5173H14.5515H14.5858H14.62H14.6542H14.6883H14.7225H14.7565H14.7906H14.8246H14.8586H14.8926H14.9265H14.9605H14.9943H15.0282H15.062H15.0957H15.1295H15.1632H15.1968H15.2305H15.2641H15.2976H15.3312H15.3646H15.3981H15.4315H15.4649H15.4982H15.5315H15.5648H15.598H15.6312H15.6643H15.6974H15.7305H15.7635H15.7965H15.8294H15.8623H15.8951H15.9279H15.9607H15.9934H16.0261H16.0588H16.0913H16.1239H16.1564H16.1888H16.2213H16.2536H16.2859H16.3182H16.3504H16.3826H16.4147H16.4468H16.4788H16.5108H16.5428H16.5746H16.6065H16.6383H16.67H16.7017H16.7333H16.7649H16.7964H16.8279H16.8593H16.8907H16.922H16.9532H16.9844H17.0156H17.0467H17.0777H17.1087H17.1397H17.1705H17.2013H17.2321H17.2628H17.2935H17.324H17.3546H17.385H17.4155H17.4458H17.4761H17.5063H17.5365H17.5666H17.5967H17.6267H17.6566H17.6865H17.7163H17.746H17.7757H17.8053H17.8348H17.8643H17.8937H17.9231H17.9524H17.9816H18.0108H18.0399H18.0689H18.0979H18.1268H18.1556H18.1843H18.213H18.2416H18.2702H18.2987H18.3271H18.3554H18.3837H18.4119H18.44H18.4681H18.4961H18.524H18.5518H18.5796H18.6073H18.6349H18.6624H18.6899H18.7173H18.7446H18.7719H18.799H18.8261H18.8532H18.8801H18.907H18.9338H18.9605H18.9871H19.0136H19.0401H19.0665H19.0928H19.1191H19.1452H19.1713H19.1973H19.2232H19.249H19.2748H19.3004H19.326H19.3515H19.3769H19.4023H19.4275H19.4527H19.4778H19.5028H19.5277H19.5525H19.5772H19.6019H19.6265H19.6509H19.6753H19.6996H19.7238H19.748H19.772H19.7959H19.8198H19.8436H19.8672H19.8908H19.9143H19.9377H19.961H19.9843H20.0074H20.0304H20.0534H20.0762H20.099H20.1216H20.1442H20.1667H21.1667V32.5H20.1667H20.1442H20.1216H20.099H20.0762H20.0534H20.0304H20.0074H19.9843H19.961H19.9377H19.9143H19.8908H19.8672H19.8436H19.8198H19.7959H19.772H19.748H19.7238H19.6996H19.6753H19.6509H19.6265H19.6019H19.5772H19.5525H19.5277H19.5028H19.4778H19.4527H19.4275H19.4023H19.3769H19.3515H19.326H19.3004H19.2748H19.249H19.2232H19.1973H19.1713H19.1452H19.1191H19.0928H19.0665H19.0401H19.0136H18.9871H18.9605H18.9338H18.907H18.8801H18.8532H18.8261H18.799H18.7719H18.7446H18.7173H18.6899H18.6624H18.6349H18.6073H18.5796H18.5518H18.524H18.4961H18.4681H18.44H18.4119H18.3837H18.3554H18.3271H18.2987H18.2702H18.2416H18.213H18.1843H18.1556H18.1268H18.0979H18.0689H18.0399H18.0108H17.9816H17.9524H17.9231H17.8937H17.8643H17.8348H17.8053H17.7757H17.746H17.7163H17.6865H17.6566H17.6267H17.5967H17.5666H17.5365H17.5063H17.4761H17.4458H17.4155H17.385H17.3546H17.324H17.2935H17.2628H17.2321H17.2013H17.1705H17.1397H17.1087H17.0777H17.0467H17.0156H16.9844H16.9532H16.922H16.8907H16.8593H16.8279H16.7964H16.7649H16.7333H16.7017H16.67H16.6383H16.6065H16.5746H16.5428H16.5108H16.4788H16.4468H16.4147H16.3826H16.3504H16.3182H16.2859H16.2536H16.2213H16.1888H16.1564H16.1239H16.0913H16.0588H16.0261H15.9934H15.9607H15.9279H15.8951H15.8623H15.8294H15.7965H15.7635H15.7305H15.6974H15.6643H15.6312H15.598H15.5648H15.5315H15.4982H15.4649H15.4315H15.3981H15.3646H15.3312H15.2976H15.2641H15.2305H15.1968H15.1632H15.1295H15.0957H15.062H15.0282H14.9943H14.9605H14.9265H14.8926H14.8586H14.8246H14.7906H14.7565H14.7225H14.6883H14.6542H14.62H14.5858H14.5515H14.5173H14.483H14.4486H14.4143H14.3799H14.3455H14.3111H14.2766H14.2421H14.2076H14.173H14.1385H14.1039H14.0693H14.0346H14H13.9653H13.9306H13.8959H13.8611H13.8263H13.7915H13.7567H13.7219H13.687H13.6522H13.6173H13.5824H13.5474H13.5125H13.4775H13.4425H13.4075H13.3725H13.3374H13.3024H13.2673H13.2322H13.1971H13.162H13.1269H13.0917H13.0565H13.0214H12.9862H12.951H12.9158H12.8805H12.8453H12.81H12.7748H12.7395H12.7042H12.6689H12.6336H12.5983H12.563H12.5276H12.4923H12.457H12.4216H12.3862H12.3509H12.3155H12.2801H12.2447H12.2093H12.1739H12.1385H12.1031H12.0677H12.0323H11.9968H11.9614H11.926H11.8905H11.8551H11.8197H11.7842H11.7488H11.7134H11.6779H11.6425H11.607H11.5716H11.5361H11.5007H11.4653H11.4298H11.3944H11.359H11.3236H11.2881H11.2527H11.2173H11.1819H11.1465H11.1111H11.0757H11.0403H11.0049H10.9695H10.9341H10.8988H10.8634H10.8281H10.7927H10.7574H10.7221H10.6868H10.6515H10.6162H10.5809H10.5456H10.5104H10.4751H10.4399H10.4046H10.3694H10.3342H10.299H10.2639H10.2287H10.1935H10.1584H10.1233H10.0882H10.0531H10.018H9.98297H9.94793H9.91291H9.8779H9.84291H9.80794H9.77299H9.73806H9.70315H9.66825H9.63338H9.59852H9.56369H9.52887H9.49408H9.45931H9.42456H9.38983H9.35513H9.32044H9.28579H9.25115H9.21654H9.18195H9.14739H9.11285H9.07834H9.04385H9.00939H8.97495H8.94055H8.90616H8.87181H8.83748H8.80319H8.76892H8.73468H8.70046H8.66628H8.63213H8.59801H8.56391H8.52985H8.49582H8.46182H8.42786H8.39392H8.36002H8.32615H8.29232H8.25851H8.22474H8.19101H8.15731H8.12365H8.09002H8.05643H8.02287H7.98935H7.95586H7.92242H7.88901H7.85563H7.8223H7.78901H7.75575H7.72253H7.68935H7.65622H7.62312H7.59006H7.55704H7.52407H7.49114H7.45825H7.4254H7.39259H7.35983H7.32711H7.29443H7.2618H7.22921H7.19667H7.16417H7.13172H7.09931H7.06695H7.03464H7.00237H6.97015H6.93798H6.90585H6.87378H6.84175H6.80977H6.77784H6.74596H6.71413H6.68235H6.65062H6.61894H6.58732H6.55574H6.52422H6.49275H6.46133H6.42997H6.39865H6.3674H6.33619H6.30504H6.27395H6.24291H6.21193H6.181H6.15013H6.11932H6.08856H6.05786H6.02722H5.99663H5.9661H5.93564H5.90523H5.87488H5.84459H5.81436H5.78419H5.75408H5.72403H5.69405H5.66412H5.63426H5.60446H5.57473H5.54505H5.51544H5.4859H5.45642H5.427H5.39765H5.36836H5.33914H5.30998H5.2809H5.25187H5.22292H5.19403H5.16521H5.13646H5.10777H5.07916H5.05061H5.02214H4.99373H4.96539H4.93713H4.90893H4.88081H4.85276H4.82478H4.79687H4.76904H4.74127H4.71358H4.68597H4.65843H4.63096H4.60357H4.57625H4.54901H4.52184H4.49475H4.46774H4.4408H4.41394H4.38716H4.36045H4.33383H4.30728H4.28081H4.25442H4.22811H4.20188H4.17573H4.14966H4.12367H4.09776H4.07194H4.04619H4.02053H3.99495C2.89258 32.5 2 31.6068 2 30.5V4C2 2.89543 2.89543 2 4 2H48C49.1046 2 50 2.89543 50 4V30.5833C50 31.6419 49.1419 32.5 48.0833 32.5V34.5C50.2464 34.5 52 32.7464 52 30.5833V4C52 1.79086 50.2091 0 48 0H4ZM23.6666 34.2365V16.5001C23.6666 14.8432 25.0098 13.5001 26.6666 13.5001H43.1666C44.8235 13.5001 46.1666 14.8432 46.1666 16.5001V34.2365C46.1666 35.1728 45.7306 36.0564 44.9442 36.5645C42.9496 37.8532 38.8247 40.1667 34.9166 40.1667C31.0086 40.1667 26.8836 37.8532 24.8891 36.5645C24.1026 36.0564 23.6666 35.1728 23.6666 34.2365Z" fill="#2A89E5"/>
<path d="M21.1667 34.5V36.5H23.1667V34.5H21.1667ZM21.1667 32.5H23.1667V30.5H21.1667V32.5ZM48.0833 32.5V30.5H46.0833V32.5H48.0833ZM48.0833 34.5H46.0833V36.5H48.0833V34.5ZM44.9442 36.5645L43.8588 34.8847V34.8847L44.9442 36.5645ZM24.8891 36.5645L25.9744 34.8847L25.9744 34.8846L24.8891 36.5645ZM2 4C2 2.89543 2.89543 2 4 2V-2C0.686292 -2 -2 0.686291 -2 4H2ZM2 30.5V4H-2V30.5H2ZM3.99495 32.5C2.89291 32.5 2 31.6071 2 30.5H-2C-2 33.8068 0.674338 36.5 3.99495 36.5V32.5ZM4.02053 32.5H3.99495V36.5H4.02053V32.5ZM4.04619 32.5H4.02053V36.5H4.04619V32.5ZM4.07194 32.5H4.04619V36.5H4.07194V32.5ZM4.09776 32.5H4.07194V36.5H4.09776V32.5ZM4.12367 32.5H4.09776V36.5H4.12367V32.5ZM4.14966 32.5H4.12367V36.5H4.14966V32.5ZM4.17573 32.5H4.14966V36.5H4.17573V32.5ZM4.20188 32.5H4.17573V36.5H4.20188V32.5ZM4.22811 32.5H4.20188V36.5H4.22811V32.5ZM4.25442 32.5H4.22811V36.5H4.25442V32.5ZM4.28081 32.5H4.25442V36.5H4.28081V32.5ZM4.30728 32.5H4.28081V36.5H4.30728V32.5ZM4.33383 32.5H4.30728V36.5H4.33383V32.5ZM4.36045 32.5H4.33383V36.5H4.36045V32.5ZM4.38716 32.5H4.36045V36.5H4.38716V32.5ZM4.41394 32.5H4.38716V36.5H4.41394V32.5ZM4.4408 32.5H4.41394V36.5H4.4408V32.5ZM4.46774 32.5H4.4408V36.5H4.46774V32.5ZM4.49475 32.5H4.46774V36.5H4.49475V32.5ZM4.52184 32.5H4.49475V36.5H4.52184V32.5ZM4.54901 32.5H4.52184V36.5H4.54901V32.5ZM4.57625 32.5H4.54901V36.5H4.57625V32.5ZM4.60357 32.5H4.57625V36.5H4.60357V32.5ZM4.63096 32.5H4.60357V36.5H4.63096V32.5ZM4.65843 32.5H4.63096V36.5H4.65843V32.5ZM4.68597 32.5H4.65843V36.5H4.68597V32.5ZM4.71358 32.5H4.68597V36.5H4.71358V32.5ZM4.74127 32.5H4.71358V36.5H4.74127V32.5ZM4.76904 32.5H4.74127V36.5H4.76904V32.5ZM4.79687 32.5H4.76904V36.5H4.79687V32.5ZM4.82478 32.5H4.79687V36.5H4.82478V32.5ZM4.85276 32.5H4.82478V36.5H4.85276V32.5ZM4.88081 32.5H4.85276V36.5H4.88081V32.5ZM4.90893 32.5H4.88081V36.5H4.90893V32.5ZM4.93713 32.5H4.90893V36.5H4.93713V32.5ZM4.96539 32.5H4.93713V36.5H4.96539V32.5ZM4.99373 32.5H4.96539V36.5H4.99373V32.5ZM5.02214 32.5H4.99373V36.5H5.02214V32.5ZM5.05061 32.5H5.02214V36.5H5.05061V32.5ZM5.07916 32.5H5.05061V36.5H5.07916V32.5ZM5.10777 32.5H5.07916V36.5H5.10777V32.5ZM5.13646 32.5H5.10777V36.5H5.13646V32.5ZM5.16521 32.5H5.13646V36.5H5.16521V32.5ZM5.19403 32.5H5.16521V36.5H5.19403V32.5ZM5.22292 32.5H5.19403V36.5H5.22292V32.5ZM5.25187 32.5H5.22292V36.5H5.25187V32.5ZM5.2809 32.5H5.25187V36.5H5.2809V32.5ZM5.30998 32.5H5.2809V36.5H5.30998V32.5ZM5.33914 32.5H5.30998V36.5H5.33914V32.5ZM5.36836 32.5H5.33914V36.5H5.36836V32.5ZM5.39765 32.5H5.36836V36.5H5.39765V32.5ZM5.427 32.5H5.39765V36.5H5.427V32.5ZM5.45642 32.5H5.427V36.5H5.45642V32.5ZM5.4859 32.5H5.45642V36.5H5.4859V32.5ZM5.51544 32.5H5.4859V36.5H5.51544V32.5ZM5.54505 32.5H5.51544V36.5H5.54505V32.5ZM5.57473 32.5H5.54505V36.5H5.57473V32.5ZM5.60446 32.5H5.57473V36.5H5.60446V32.5ZM5.63426 32.5H5.60446V36.5H5.63426V32.5ZM5.66412 32.5H5.63426V36.5H5.66412V32.5ZM5.69405 32.5H5.66412V36.5H5.69405V32.5ZM5.72403 32.5H5.69405V36.5H5.72403V32.5ZM5.75408 32.5H5.72403V36.5H5.75408V32.5ZM5.78419 32.5H5.75408V36.5H5.78419V32.5ZM5.81436 32.5H5.78419V36.5H5.81436V32.5ZM5.84459 32.5H5.81436V36.5H5.84459V32.5ZM5.87488 32.5H5.84459V36.5H5.87488V32.5ZM5.90523 32.5H5.87488V36.5H5.90523V32.5ZM5.93564 32.5H5.90523V36.5H5.93564V32.5ZM5.9661 32.5H5.93564V36.5H5.9661V32.5ZM5.99663 32.5H5.9661V36.5H5.99663V32.5ZM6.02722 32.5H5.99663V36.5H6.02722V32.5ZM6.05786 32.5H6.02722V36.5H6.05786V32.5ZM6.08856 32.5H6.05786V36.5H6.08856V32.5ZM6.11932 32.5H6.08856V36.5H6.11932V32.5ZM6.15013 32.5H6.11932V36.5H6.15013V32.5ZM6.181 32.5H6.15013V36.5H6.181V32.5ZM6.21193 32.5H6.181V36.5H6.21193V32.5ZM6.24291 32.5H6.21193V36.5H6.24291V32.5ZM6.27395 32.5H6.24291V36.5H6.27395V32.5ZM6.30504 32.5H6.27395V36.5H6.30504V32.5ZM6.33619 32.5H6.30504V36.5H6.33619V32.5ZM6.3674 32.5H6.33619V36.5H6.3674V32.5ZM6.39865 32.5H6.3674V36.5H6.39865V32.5ZM6.42997 32.5H6.39865V36.5H6.42997V32.5ZM6.46133 32.5H6.42997V36.5H6.46133V32.5ZM6.49275 32.5H6.46133V36.5H6.49275V32.5ZM6.52422 32.5H6.49275V36.5H6.52422V32.5ZM6.55574 32.5H6.52422V36.5H6.55574V32.5ZM6.58732 32.5H6.55574V36.5H6.58732V32.5ZM6.61894 32.5H6.58732V36.5H6.61894V32.5ZM6.65062 32.5H6.61894V36.5H6.65062V32.5ZM6.68235 32.5H6.65062V36.5H6.68235V32.5ZM6.71413 32.5H6.68235V36.5H6.71413V32.5ZM6.74596 32.5H6.71413V36.5H6.74596V32.5ZM6.77784 32.5H6.74596V36.5H6.77784V32.5ZM6.80977 32.5H6.77784V36.5H6.80977V32.5ZM6.84175 32.5H6.80977V36.5H6.84175V32.5ZM6.87378 32.5H6.84175V36.5H6.87378V32.5ZM6.90585 32.5H6.87378V36.5H6.90585V32.5ZM6.93798 32.5H6.90585V36.5H6.93798V32.5ZM6.97015 32.5H6.93798V36.5H6.97015V32.5ZM7.00237 32.5H6.97015V36.5H7.00237V32.5ZM7.03464 32.5H7.00237V36.5H7.03464V32.5ZM7.06695 32.5H7.03464V36.5H7.06695V32.5ZM7.09931 32.5H7.06695V36.5H7.09931V32.5ZM7.13172 32.5H7.09931V36.5H7.13172V32.5ZM7.16417 32.5H7.13172V36.5H7.16417V32.5ZM7.19667 32.5H7.16417V36.5H7.19667V32.5ZM7.22921 32.5H7.19667V36.5H7.22921V32.5ZM7.2618 32.5H7.22921V36.5H7.2618V32.5ZM7.29443 32.5H7.2618V36.5H7.29443V32.5ZM7.32711 32.5H7.29443V36.5H7.32711V32.5ZM7.35983 32.5H7.32711V36.5H7.35983V32.5ZM7.39259 32.5H7.35983V36.5H7.39259V32.5ZM7.4254 32.5H7.39259V36.5H7.4254V32.5ZM7.45825 32.5H7.4254V36.5H7.45825V32.5ZM7.49114 32.5H7.45825V36.5H7.49114V32.5ZM7.52407 32.5H7.49114V36.5H7.52407V32.5ZM7.55704 32.5H7.52407V36.5H7.55704V32.5ZM7.59006 32.5H7.55704V36.5H7.59006V32.5ZM7.62312 32.5H7.59006V36.5H7.62312V32.5ZM7.65622 32.5H7.62312V36.5H7.65622V32.5ZM7.68935 32.5H7.65622V36.5H7.68935V32.5ZM7.72253 32.5H7.68935V36.5H7.72253V32.5ZM7.75575 32.5H7.72253V36.5H7.75575V32.5ZM7.78901 32.5H7.75575V36.5H7.78901V32.5ZM7.8223 32.5H7.78901V36.5H7.8223V32.5ZM7.85563 32.5H7.8223V36.5H7.85563V32.5ZM7.88901 32.5H7.85563V36.5H7.88901V32.5ZM7.92242 32.5H7.88901V36.5H7.92242V32.5ZM7.95586 32.5H7.92242V36.5H7.95586V32.5ZM7.98935 32.5H7.95586V36.5H7.98935V32.5ZM8.02287 32.5H7.98935V36.5H8.02287V32.5ZM8.05643 32.5H8.02287V36.5H8.05643V32.5ZM8.09002 32.5H8.05643V36.5H8.09002V32.5ZM8.12365 32.5H8.09002V36.5H8.12365V32.5ZM8.15731 32.5H8.12365V36.5H8.15731V32.5ZM8.19101 32.5H8.15731V36.5H8.19101V32.5ZM8.22474 32.5H8.19101V36.5H8.22474V32.5ZM8.25851 32.5H8.22474V36.5H8.25851V32.5ZM8.29232 32.5H8.25851V36.5H8.29232V32.5ZM8.32615 32.5H8.29232V36.5H8.32615V32.5ZM8.36002 32.5H8.32615V36.5H8.36002V32.5ZM8.39392 32.5H8.36002V36.5H8.39392V32.5ZM8.42786 32.5H8.39392V36.5H8.42786V32.5ZM8.46182 32.5H8.42786V36.5H8.46182V32.5ZM8.49582 32.5H8.46182V36.5H8.49582V32.5ZM8.52985 32.5H8.49582V36.5H8.52985V32.5ZM8.56391 32.5H8.52985V36.5H8.56391V32.5ZM8.59801 32.5H8.56391V36.5H8.59801V32.5ZM8.63213 32.5H8.59801V36.5H8.63213V32.5ZM8.66628 32.5H8.63213V36.5H8.66628V32.5ZM8.70046 32.5H8.66628V36.5H8.70046V32.5ZM8.73468 32.5H8.70046V36.5H8.73468V32.5ZM8.76892 32.5H8.73468V36.5H8.76892V32.5ZM8.80319 32.5H8.76892V36.5H8.80319V32.5ZM8.83748 32.5H8.80319V36.5H8.83748V32.5ZM8.87181 32.5H8.83748V36.5H8.87181V32.5ZM8.90616 32.5H8.87181V36.5H8.90616V32.5ZM8.94055 32.5H8.90616V36.5H8.94055V32.5ZM8.97495 32.5H8.94055V36.5H8.97495V32.5ZM9.00939 32.5H8.97495V36.5H9.00939V32.5ZM9.04385 32.5H9.00939V36.5H9.04385V32.5ZM9.07834 32.5H9.04385V36.5H9.07834V32.5ZM9.11285 32.5H9.07834V36.5H9.11285V32.5ZM9.14739 32.5H9.11285V36.5H9.14739V32.5ZM9.18195 32.5H9.14739V36.5H9.18195V32.5ZM9.21654 32.5H9.18195V36.5H9.21654V32.5ZM9.25115 32.5H9.21654V36.5H9.25115V32.5ZM9.28579 32.5H9.25115V36.5H9.28579V32.5ZM9.32044 32.5H9.28579V36.5H9.32044V32.5ZM9.35513 32.5H9.32044V36.5H9.35513V32.5ZM9.38983 32.5H9.35513V36.5H9.38983V32.5ZM9.42456 32.5H9.38983V36.5H9.42456V32.5ZM9.45931 32.5H9.42456V36.5H9.45931V32.5ZM9.49408 32.5H9.45931V36.5H9.49408V32.5ZM9.52887 32.5H9.49408V36.5H9.52887V32.5ZM9.56369 32.5H9.52887V36.5H9.56369V32.5ZM9.59852 32.5H9.56369V36.5H9.59852V32.5ZM9.63338 32.5H9.59852V36.5H9.63338V32.5ZM9.66825 32.5H9.63338V36.5H9.66825V32.5ZM9.70315 32.5H9.66825V36.5H9.70315V32.5ZM9.73806 32.5H9.70315V36.5H9.73806V32.5ZM9.77299 32.5H9.73806V36.5H9.77299V32.5ZM9.80794 32.5H9.77299V36.5H9.80794V32.5ZM9.84291 32.5H9.80794V36.5H9.84291V32.5ZM9.8779 32.5H9.84291V36.5H9.8779V32.5ZM9.91291 32.5H9.8779V36.5H9.91291V32.5ZM9.94793 32.5H9.91291V36.5H9.94793V32.5ZM9.98297 32.5H9.94793V36.5H9.98297V32.5ZM10.018 32.5H9.98297V36.5H10.018V32.5ZM10.0531 32.5H10.018V36.5H10.0531V32.5ZM10.0882 32.5H10.0531V36.5H10.0882V32.5ZM10.1233 32.5H10.0882V36.5H10.1233V32.5ZM10.1584 32.5H10.1233V36.5H10.1584V32.5ZM10.1935 32.5H10.1584V36.5H10.1935V32.5ZM10.2287 32.5H10.1935V36.5H10.2287V32.5ZM10.2639 32.5H10.2287V36.5H10.2639V32.5ZM10.299 32.5H10.2639V36.5H10.299V32.5ZM10.3342 32.5H10.299V36.5H10.3342V32.5ZM10.3694 32.5H10.3342V36.5H10.3694V32.5ZM10.4046 32.5H10.3694V36.5H10.4046V32.5ZM10.4399 32.5H10.4046V36.5H10.4399V32.5ZM10.4751 32.5H10.4399V36.5H10.4751V32.5ZM10.5104 32.5H10.4751V36.5H10.5104V32.5ZM10.5456 32.5H10.5104V36.5H10.5456V32.5ZM10.5809 32.5H10.5456V36.5H10.5809V32.5ZM10.6162 32.5H10.5809V36.5H10.6162V32.5ZM10.6515 32.5H10.6162V36.5H10.6515V32.5ZM10.6868 32.5H10.6515V36.5H10.6868V32.5ZM10.7221 32.5H10.6868V36.5H10.7221V32.5ZM10.7574 32.5H10.7221V36.5H10.7574V32.5ZM10.7927 32.5H10.7574V36.5H10.7927V32.5ZM10.8281 32.5H10.7927V36.5H10.8281V32.5ZM10.8634 32.5H10.8281V36.5H10.8634V32.5ZM10.8988 32.5H10.8634V36.5H10.8988V32.5ZM10.9341 32.5H10.8988V36.5H10.9341V32.5ZM10.9695 32.5H10.9341V36.5H10.9695V32.5ZM11.0049 32.5H10.9695V36.5H11.0049V32.5ZM11.0403 32.5H11.0049V36.5H11.0403V32.5ZM11.0757 32.5H11.0403V36.5H11.0757V32.5ZM11.1111 32.5H11.0757V36.5H11.1111V32.5ZM11.1465 32.5H11.1111V36.5H11.1465V32.5ZM11.1819 32.5H11.1465V36.5H11.1819V32.5ZM11.2173 32.5H11.1819V36.5H11.2173V32.5ZM11.2527 32.5H11.2173V36.5H11.2527V32.5ZM11.2881 32.5H11.2527V36.5H11.2881V32.5ZM11.3236 32.5H11.2881V36.5H11.3236V32.5ZM11.359 32.5H11.3236V36.5H11.359V32.5ZM11.3944 32.5H11.359V36.5H11.3944V32.5ZM11.4298 32.5H11.3944V36.5H11.4298V32.5ZM11.4653 32.5H11.4298V36.5H11.4653V32.5ZM11.5007 32.5H11.4653V36.5H11.5007V32.5ZM11.5361 32.5H11.5007V36.5H11.5361V32.5ZM11.5716 32.5H11.5361V36.5H11.5716V32.5ZM11.607 32.5H11.5716V36.5H11.607V32.5ZM11.6425 32.5H11.607V36.5H11.6425V32.5ZM11.6779 32.5H11.6425V36.5H11.6779V32.5ZM11.7134 32.5H11.6779V36.5H11.7134V32.5ZM11.7488 32.5H11.7134V36.5H11.7488V32.5ZM11.7842 32.5H11.7488V36.5H11.7842V32.5ZM11.8197 32.5H11.7842V36.5H11.8197V32.5ZM11.8551 32.5H11.8197V36.5H11.8551V32.5ZM11.8905 32.5H11.8551V36.5H11.8905V32.5ZM11.926 32.5H11.8905V36.5H11.926V32.5ZM11.9614 32.5H11.926V36.5H11.9614V32.5ZM11.9968 32.5H11.9614V36.5H11.9968V32.5ZM12.0323 32.5H11.9968V36.5H12.0323V32.5ZM12.0677 32.5H12.0323V36.5H12.0677V32.5ZM12.1031 32.5H12.0677V36.5H12.1031V32.5ZM12.1385 32.5H12.1031V36.5H12.1385V32.5ZM12.1739 32.5H12.1385V36.5H12.1739V32.5ZM12.2093 32.5H12.1739V36.5H12.2093V32.5ZM12.2447 32.5H12.2093V36.5H12.2447V32.5ZM12.2801 32.5H12.2447V36.5H12.2801V32.5ZM12.3155 32.5H12.2801V36.5H12.3155V32.5ZM12.3509 32.5H12.3155V36.5H12.3509V32.5ZM12.3862 32.5H12.3509V36.5H12.3862V32.5ZM12.4216 32.5H12.3862V36.5H12.4216V32.5ZM12.457 32.5H12.4216V36.5H12.457V32.5ZM12.4923 32.5H12.457V36.5H12.4923V32.5ZM12.5276 32.5H12.4923V36.5H12.5276V32.5ZM12.563 32.5H12.5276V36.5H12.563V32.5ZM12.5983 32.5H12.563V36.5H12.5983V32.5ZM12.6336 32.5H12.5983V36.5H12.6336V32.5ZM12.6689 32.5H12.6336V36.5H12.6689V32.5ZM12.7042 32.5H12.6689V36.5H12.7042V32.5ZM12.7395 32.5H12.7042V36.5H12.7395V32.5ZM12.7748 32.5H12.7395V36.5H12.7748V32.5ZM12.81 32.5H12.7748V36.5H12.81V32.5ZM12.8453 32.5H12.81V36.5H12.8453V32.5ZM12.8805 32.5H12.8453V36.5H12.8805V32.5ZM12.9158 32.5H12.8805V36.5H12.9158V32.5ZM12.951 32.5H12.9158V36.5H12.951V32.5ZM12.9862 32.5H12.951V36.5H12.9862V32.5ZM13.0214 32.5H12.9862V36.5H13.0214V32.5ZM13.0565 32.5H13.0214V36.5H13.0565V32.5ZM13.0917 32.5H13.0565V36.5H13.0917V32.5ZM13.1269 32.5H13.0917V36.5H13.1269V32.5ZM13.162 32.5H13.1269V36.5H13.162V32.5ZM13.1971 32.5H13.162V36.5H13.1971V32.5ZM13.2322 32.5H13.1971V36.5H13.2322V32.5ZM13.2673 32.5H13.2322V36.5H13.2673V32.5ZM13.3024 32.5H13.2673V36.5H13.3024V32.5ZM13.3374 32.5H13.3024V36.5H13.3374V32.5ZM13.3725 32.5H13.3374V36.5H13.3725V32.5ZM13.4075 32.5H13.3725V36.5H13.4075V32.5ZM13.4425 32.5H13.4075V36.5H13.4425V32.5ZM13.4775 32.5H13.4425V36.5H13.4775V32.5ZM13.5125 32.5H13.4775V36.5H13.5125V32.5ZM13.5474 32.5H13.5125V36.5H13.5474V32.5ZM13.5824 32.5H13.5474V36.5H13.5824V32.5ZM13.6173 32.5H13.5824V36.5H13.6173V32.5ZM13.6522 32.5H13.6173V36.5H13.6522V32.5ZM13.687 32.5H13.6522V36.5H13.687V32.5ZM13.7219 32.5H13.687V36.5H13.7219V32.5ZM13.7567 32.5H13.7219V36.5H13.7567V32.5ZM13.7915 32.5H13.7567V36.5H13.7915V32.5ZM13.8263 32.5H13.7915V36.5H13.8263V32.5ZM13.8611 32.5H13.8263V36.5H13.8611V32.5ZM13.8959 32.5H13.8611V36.5H13.8959V32.5ZM13.9306 32.5H13.8959V36.5H13.9306V32.5ZM13.9653 32.5H13.9306V36.5H13.9653V32.5ZM14 32.5H13.9653V36.5H14V32.5ZM14.0346 32.5H14V36.5H14.0346V32.5ZM14.0693 32.5H14.0346V36.5H14.0693V32.5ZM14.1039 32.5H14.0693V36.5H14.1039V32.5ZM14.1385 32.5H14.1039V36.5H14.1385V32.5ZM14.173 32.5H14.1385V36.5H14.173V32.5ZM14.2076 32.5H14.173V36.5H14.2076V32.5ZM14.2421 32.5H14.2076V36.5H14.2421V32.5ZM14.2766 32.5H14.2421V36.5H14.2766V32.5ZM14.3111 32.5H14.2766V36.5H14.3111V32.5ZM14.3455 32.5H14.3111V36.5H14.3455V32.5ZM14.3799 32.5H14.3455V36.5H14.3799V32.5ZM14.4143 32.5H14.3799V36.5H14.4143V32.5ZM14.4486 32.5H14.4143V36.5H14.4486V32.5ZM14.483 32.5H14.4486V36.5H14.483V32.5ZM14.5173 32.5H14.483V36.5H14.5173V32.5ZM14.5515 32.5H14.5173V36.5H14.5515V32.5ZM14.5858 32.5H14.5515V36.5H14.5858V32.5ZM14.62 32.5H14.5858V36.5H14.62V32.5ZM14.6542 32.5H14.62V36.5H14.6542V32.5ZM14.6883 32.5H14.6542V36.5H14.6883V32.5ZM14.7225 32.5H14.6883V36.5H14.7225V32.5ZM14.7565 32.5H14.7225V36.5H14.7565V32.5ZM14.7906 32.5H14.7565V36.5H14.7906V32.5ZM14.8246 32.5H14.7906V36.5H14.8246V32.5ZM14.8586 32.5H14.8246V36.5H14.8586V32.5ZM14.8926 32.5H14.8586V36.5H14.8926V32.5ZM14.9265 32.5H14.8926V36.5H14.9265V32.5ZM14.9605 32.5H14.9265V36.5H14.9605V32.5ZM14.9943 32.5H14.9605V36.5H14.9943V32.5ZM15.0282 32.5H14.9943V36.5H15.0282V32.5ZM15.062 32.5H15.0282V36.5H15.062V32.5ZM15.0957 32.5H15.062V36.5H15.0957V32.5ZM15.1295 32.5H15.0957V36.5H15.1295V32.5ZM15.1632 32.5H15.1295V36.5H15.1632V32.5ZM15.1968 32.5H15.1632V36.5H15.1968V32.5ZM15.2305 32.5H15.1968V36.5H15.2305V32.5ZM15.2641 32.5H15.2305V36.5H15.2641V32.5ZM15.2976 32.5H15.2641V36.5H15.2976V32.5ZM15.3312 32.5H15.2976V36.5H15.3312V32.5ZM15.3646 32.5H15.3312V36.5H15.3646V32.5ZM15.3981 32.5H15.3646V36.5H15.3981V32.5ZM15.4315 32.5H15.3981V36.5H15.4315V32.5ZM15.4649 32.5H15.4315V36.5H15.4649V32.5ZM15.4982 32.5H15.4649V36.5H15.4982V32.5ZM15.5315 32.5H15.4982V36.5H15.5315V32.5ZM15.5648 32.5H15.5315V36.5H15.5648V32.5ZM15.598 32.5H15.5648V36.5H15.598V32.5ZM15.6312 32.5H15.598V36.5H15.6312V32.5ZM15.6643 32.5H15.6312V36.5H15.6643V32.5ZM15.6974 32.5H15.6643V36.5H15.6974V32.5ZM15.7305 32.5H15.6974V36.5H15.7305V32.5ZM15.7635 32.5H15.7305V36.5H15.7635V32.5ZM15.7965 32.5H15.7635V36.5H15.7965V32.5ZM15.8294 32.5H15.7965V36.5H15.8294V32.5ZM15.8623 32.5H15.8294V36.5H15.8623V32.5ZM15.8951 32.5H15.8623V36.5H15.8951V32.5ZM15.9279 32.5H15.8951V36.5H15.9279V32.5ZM15.9607 32.5H15.9279V36.5H15.9607V32.5ZM15.9934 32.5H15.9607V36.5H15.9934V32.5ZM16.0261 32.5H15.9934V36.5H16.0261V32.5ZM16.0588 32.5H16.0261V36.5H16.0588V32.5ZM16.0913 32.5H16.0588V36.5H16.0913V32.5ZM16.1239 32.5H16.0913V36.5H16.1239V32.5ZM16.1564 32.5H16.1239V36.5H16.1564V32.5ZM16.1888 32.5H16.1564V36.5H16.1888V32.5ZM16.2213 32.5H16.1888V36.5H16.2213V32.5ZM16.2536 32.5H16.2213V36.5H16.2536V32.5ZM16.2859 32.5H16.2536V36.5H16.2859V32.5ZM16.3182 32.5H16.2859V36.5H16.3182V32.5ZM16.3504 32.5H16.3182V36.5H16.3504V32.5ZM16.3826 32.5H16.3504V36.5H16.3826V32.5ZM16.4147 32.5H16.3826V36.5H16.4147V32.5ZM16.4468 32.5H16.4147V36.5H16.4468V32.5ZM16.4788 32.5H16.4468V36.5H16.4788V32.5ZM16.5108 32.5H16.4788V36.5H16.5108V32.5ZM16.5428 32.5H16.5108V36.5H16.5428V32.5ZM16.5746 32.5H16.5428V36.5H16.5746V32.5ZM16.6065 32.5H16.5746V36.5H16.6065V32.5ZM16.6383 32.5H16.6065V36.5H16.6383V32.5ZM16.67 32.5H16.6383V36.5H16.67V32.5ZM16.7017 32.5H16.67V36.5H16.7017V32.5ZM16.7333 32.5H16.7017V36.5H16.7333V32.5ZM16.7649 32.5H16.7333V36.5H16.7649V32.5ZM16.7964 32.5H16.7649V36.5H16.7964V32.5ZM16.8279 32.5H16.7964V36.5H16.8279V32.5ZM16.8593 32.5H16.8279V36.5H16.8593V32.5ZM16.8907 32.5H16.8593V36.5H16.8907V32.5ZM16.922 32.5H16.8907V36.5H16.922V32.5ZM16.9532 32.5H16.922V36.5H16.9532V32.5ZM16.9844 32.5H16.9532V36.5H16.9844V32.5ZM17.0156 32.5H16.9844V36.5H17.0156V32.5ZM17.0467 32.5H17.0156V36.5H17.0467V32.5ZM17.0777 32.5H17.0467V36.5H17.0777V32.5ZM17.1087 32.5H17.0777V36.5H17.1087V32.5ZM17.1397 32.5H17.1087V36.5H17.1397V32.5ZM17.1705 32.5H17.1397V36.5H17.1705V32.5ZM17.2013 32.5H17.1705V36.5H17.2013V32.5ZM17.2321 32.5H17.2013V36.5H17.2321V32.5ZM17.2628 32.5H17.2321V36.5H17.2628V32.5ZM17.2935 32.5H17.2628V36.5H17.2935V32.5ZM17.324 32.5H17.2935V36.5H17.324V32.5ZM17.3546 32.5H17.324V36.5H17.3546V32.5ZM17.385 32.5H17.3546V36.5H17.385V32.5ZM17.4155 32.5H17.385V36.5H17.4155V32.5ZM17.4458 32.5H17.4155V36.5H17.4458V32.5ZM17.4761 32.5H17.4458V36.5H17.4761V32.5ZM17.5063 32.5H17.4761V36.5H17.5063V32.5ZM17.5365 32.5H17.5063V36.5H17.5365V32.5ZM17.5666 32.5H17.5365V36.5H17.5666V32.5ZM17.5967 32.5H17.5666V36.5H17.5967V32.5ZM17.6267 32.5H17.5967V36.5H17.6267V32.5ZM17.6566 32.5H17.6267V36.5H17.6566V32.5ZM17.6865 32.5H17.6566V36.5H17.6865V32.5ZM17.7163 32.5H17.6865V36.5H17.7163V32.5ZM17.746 32.5H17.7163V36.5H17.746V32.5ZM17.7757 32.5H17.746V36.5H17.7757V32.5ZM17.8053 32.5H17.7757V36.5H17.8053V32.5ZM17.8348 32.5H17.8053V36.5H17.8348V32.5ZM17.8643 32.5H17.8348V36.5H17.8643V32.5ZM17.8937 32.5H17.8643V36.5H17.8937V32.5ZM17.9231 32.5H17.8937V36.5H17.9231V32.5ZM17.9524 32.5H17.9231V36.5H17.9524V32.5ZM17.9816 32.5H17.9524V36.5H17.9816V32.5ZM18.0108 32.5H17.9816V36.5H18.0108V32.5ZM18.0399 32.5H18.0108V36.5H18.0399V32.5ZM18.0689 32.5H18.0399V36.5H18.0689V32.5ZM18.0979 32.5H18.0689V36.5H18.0979V32.5ZM18.1268 32.5H18.0979V36.5H18.1268V32.5ZM18.1556 32.5H18.1268V36.5H18.1556V32.5ZM18.1843 32.5H18.1556V36.5H18.1843V32.5ZM18.213 32.5H18.1843V36.5H18.213V32.5ZM18.2416 32.5H18.213V36.5H18.2416V32.5ZM18.2702 32.5H18.2416V36.5H18.2702V32.5ZM18.2987 32.5H18.2702V36.5H18.2987V32.5ZM18.3271 32.5H18.2987V36.5H18.3271V32.5ZM18.3554 32.5H18.3271V36.5H18.3554V32.5ZM18.3837 32.5H18.3554V36.5H18.3837V32.5ZM18.4119 32.5H18.3837V36.5H18.4119V32.5ZM18.44 32.5H18.4119V36.5H18.44V32.5ZM18.4681 32.5H18.44V36.5H18.4681V32.5ZM18.4961 32.5H18.4681V36.5H18.4961V32.5ZM18.524 32.5H18.4961V36.5H18.524V32.5ZM18.5518 32.5H18.524V36.5H18.5518V32.5ZM18.5796 32.5H18.5518V36.5H18.5796V32.5ZM18.6073 32.5H18.5796V36.5H18.6073V32.5ZM18.6349 32.5H18.6073V36.5H18.6349V32.5ZM18.6624 32.5H18.6349V36.5H18.6624V32.5ZM18.6899 32.5H18.6624V36.5H18.6899V32.5ZM18.7173 32.5H18.6899V36.5H18.7173V32.5ZM18.7446 32.5H18.7173V36.5H18.7446V32.5ZM18.7719 32.5H18.7446V36.5H18.7719V32.5ZM18.799 32.5H18.7719V36.5H18.799V32.5ZM18.8261 32.5H18.799V36.5H18.8261V32.5ZM18.8532 32.5H18.8261V36.5H18.8532V32.5ZM18.8801 32.5H18.8532V36.5H18.8801V32.5ZM18.907 32.5H18.8801V36.5H18.907V32.5ZM18.9338 32.5H18.907V36.5H18.9338V32.5ZM18.9605 32.5H18.9338V36.5H18.9605V32.5ZM18.9871 32.5H18.9605V36.5H18.9871V32.5ZM19.0136 32.5H18.9871V36.5H19.0136V32.5ZM19.0401 32.5H19.0136V36.5H19.0401V32.5ZM19.0665 32.5H19.0401V36.5H19.0665V32.5ZM19.0928 32.5H19.0665V36.5H19.0928V32.5ZM19.1191 32.5H19.0928V36.5H19.1191V32.5ZM19.1452 32.5H19.1191V36.5H19.1452V32.5ZM19.1713 32.5H19.1452V36.5H19.1713V32.5ZM19.1973 32.5H19.1713V36.5H19.1973V32.5ZM19.2232 32.5H19.1973V36.5H19.2232V32.5ZM19.249 32.5H19.2232V36.5H19.249V32.5ZM19.2748 32.5H19.249V36.5H19.2748V32.5ZM19.3004 32.5H19.2748V36.5H19.3004V32.5ZM19.326 32.5H19.3004V36.5H19.326V32.5ZM19.3515 32.5H19.326V36.5H19.3515V32.5ZM19.3769 32.5H19.3515V36.5H19.3769V32.5ZM19.4023 32.5H19.3769V36.5H19.4023V32.5ZM19.4275 32.5H19.4023V36.5H19.4275V32.5ZM19.4527 32.5H19.4275V36.5H19.4527V32.5ZM19.4778 32.5H19.4527V36.5H19.4778V32.5ZM19.5028 32.5H19.4778V36.5H19.5028V32.5ZM19.5277 32.5H19.5028V36.5H19.5277V32.5ZM19.5525 32.5H19.5277V36.5H19.5525V32.5ZM19.5772 32.5H19.5525V36.5H19.5772V32.5ZM19.6019 32.5H19.5772V36.5H19.6019V32.5ZM19.6265 32.5H19.6019V36.5H19.6265V32.5ZM19.6509 32.5H19.6265V36.5H19.6509V32.5ZM19.6753 32.5H19.6509V36.5H19.6753V32.5ZM19.6996 32.5H19.6753V36.5H19.6996V32.5ZM19.7238 32.5H19.6996V36.5H19.7238V32.5ZM19.748 32.5H19.7238V36.5H19.748V32.5ZM19.772 32.5H19.748V36.5H19.772V32.5ZM19.7959 32.5H19.772V36.5H19.7959V32.5ZM19.8198 32.5H19.7959V36.5H19.8198V32.5ZM19.8436 32.5H19.8198V36.5H19.8436V32.5ZM19.8672 32.5H19.8436V36.5H19.8672V32.5ZM19.8908 32.5H19.8672V36.5H19.8908V32.5ZM19.9143 32.5H19.8908V36.5H19.9143V32.5ZM19.9377 32.5H19.9143V36.5H19.9377V32.5ZM19.961 32.5H19.9377V36.5H19.961V32.5ZM19.9843 32.5H19.961V36.5H19.9843V32.5ZM20.0074 32.5H19.9843V36.5H20.0074V32.5ZM20.0304 32.5H20.0074V36.5H20.0304V32.5ZM20.0534 32.5H20.0304V36.5H20.0534V32.5ZM20.0762 32.5H20.0534V36.5H20.0762V32.5ZM20.099 32.5H20.0762V36.5H20.099V32.5ZM20.1216 32.5H20.099V36.5H20.1216V32.5ZM20.1442 32.5H20.1216V36.5H20.1442V32.5ZM20.1667 32.5H20.1442V36.5H20.1667V32.5ZM21.1667 32.5H20.1667V36.5H21.1667V32.5ZM19.1667 32.5V34.5H23.1667V32.5H19.1667ZM20.1667 34.5H21.1667V30.5H20.1667V34.5ZM20.1442 34.5H20.1667V30.5H20.1442V34.5ZM20.1216 34.5H20.1442V30.5H20.1216V34.5ZM20.099 34.5H20.1216V30.5H20.099V34.5ZM20.0762 34.5H20.099V30.5H20.0762V34.5ZM20.0534 34.5H20.0762V30.5H20.0534V34.5ZM20.0304 34.5H20.0534V30.5H20.0304V34.5ZM20.0074 34.5H20.0304V30.5H20.0074V34.5ZM19.9843 34.5H20.0074V30.5H19.9843V34.5ZM19.961 34.5H19.9843V30.5H19.961V34.5ZM19.9377 34.5H19.961V30.5H19.9377V34.5ZM19.9143 34.5H19.9377V30.5H19.9143V34.5ZM19.8908 34.5H19.9143V30.5H19.8908V34.5ZM19.8672 34.5H19.8908V30.5H19.8672V34.5ZM19.8436 34.5H19.8672V30.5H19.8436V34.5ZM19.8198 34.5H19.8436V30.5H19.8198V34.5ZM19.7959 34.5H19.8198V30.5H19.7959V34.5ZM19.772 34.5H19.7959V30.5H19.772V34.5ZM19.748 34.5H19.772V30.5H19.748V34.5ZM19.7238 34.5H19.748V30.5H19.7238V34.5ZM19.6996 34.5H19.7238V30.5H19.6996V34.5ZM19.6753 34.5H19.6996V30.5H19.6753V34.5ZM19.6509 34.5H19.6753V30.5H19.6509V34.5ZM19.6265 34.5H19.6509V30.5H19.6265V34.5ZM19.6019 34.5H19.6265V30.5H19.6019V34.5ZM19.5772 34.5H19.6019V30.5H19.5772V34.5ZM19.5525 34.5H19.5772V30.5H19.5525V34.5ZM19.5277 34.5H19.5525V30.5H19.5277V34.5ZM19.5028 34.5H19.5277V30.5H19.5028V34.5ZM19.4778 34.5H19.5028V30.5H19.4778V34.5ZM19.4527 34.5H19.4778V30.5H19.4527V34.5ZM19.4275 34.5H19.4527V30.5H19.4275V34.5ZM19.4023 34.5H19.4275V30.5H19.4023V34.5ZM19.3769 34.5H19.4023V30.5H19.3769V34.5ZM19.3515 34.5H19.3769V30.5H19.3515V34.5ZM19.326 34.5H19.3515V30.5H19.326V34.5ZM19.3004 34.5H19.326V30.5H19.3004V34.5ZM19.2748 34.5H19.3004V30.5H19.2748V34.5ZM19.249 34.5H19.2748V30.5H19.249V34.5ZM19.2232 34.5H19.249V30.5H19.2232V34.5ZM19.1973 34.5H19.2232V30.5H19.1973V34.5ZM19.1713 34.5H19.1973V30.5H19.1713V34.5ZM19.1452 34.5H19.1713V30.5H19.1452V34.5ZM19.1191 34.5H19.1452V30.5H19.1191V34.5ZM19.0928 34.5H19.1191V30.5H19.0928V34.5ZM19.0665 34.5H19.0928V30.5H19.0665V34.5ZM19.0401 34.5H19.0665V30.5H19.0401V34.5ZM19.0136 34.5H19.0401V30.5H19.0136V34.5ZM18.9871 34.5H19.0136V30.5H18.9871V34.5ZM18.9605 34.5H18.9871V30.5H18.9605V34.5ZM18.9338 34.5H18.9605V30.5H18.9338V34.5ZM18.907 34.5H18.9338V30.5H18.907V34.5ZM18.8801 34.5H18.907V30.5H18.8801V34.5ZM18.8532 34.5H18.8801V30.5H18.8532V34.5ZM18.8261 34.5H18.8532V30.5H18.8261V34.5ZM18.799 34.5H18.8261V30.5H18.799V34.5ZM18.7719 34.5H18.799V30.5H18.7719V34.5ZM18.7446 34.5H18.7719V30.5H18.7446V34.5ZM18.7173 34.5H18.7446V30.5H18.7173V34.5ZM18.6899 34.5H18.7173V30.5H18.6899V34.5ZM18.6624 34.5H18.6899V30.5H18.6624V34.5ZM18.6349 34.5H18.6624V30.5H18.6349V34.5ZM18.6073 34.5H18.6349V30.5H18.6073V34.5ZM18.5796 34.5H18.6073V30.5H18.5796V34.5ZM18.5518 34.5H18.5796V30.5H18.5518V34.5ZM18.524 34.5H18.5518V30.5H18.524V34.5ZM18.4961 34.5H18.524V30.5H18.4961V34.5ZM18.4681 34.5H18.4961V30.5H18.4681V34.5ZM18.44 34.5H18.4681V30.5H18.44V34.5ZM18.4119 34.5H18.44V30.5H18.4119V34.5ZM18.3837 34.5H18.4119V30.5H18.3837V34.5ZM18.3554 34.5H18.3837V30.5H18.3554V34.5ZM18.3271 34.5H18.3554V30.5H18.3271V34.5ZM18.2987 34.5H18.3271V30.5H18.2987V34.5ZM18.2702 34.5H18.2987V30.5H18.2702V34.5ZM18.2416 34.5H18.2702V30.5H18.2416V34.5ZM18.213 34.5H18.2416V30.5H18.213V34.5ZM18.1843 34.5H18.213V30.5H18.1843V34.5ZM18.1556 34.5H18.1843V30.5H18.1556V34.5ZM18.1268 34.5H18.1556V30.5H18.1268V34.5ZM18.0979 34.5H18.1268V30.5H18.0979V34.5ZM18.0689 34.5H18.0979V30.5H18.0689V34.5ZM18.0399 34.5H18.0689V30.5H18.0399V34.5ZM18.0108 34.5H18.0399V30.5H18.0108V34.5ZM17.9816 34.5H18.0108V30.5H17.9816V34.5ZM17.9524 34.5H17.9816V30.5H17.9524V34.5ZM17.9231 34.5H17.9524V30.5H17.9231V34.5ZM17.8937 34.5H17.9231V30.5H17.8937V34.5ZM17.8643 34.5H17.8937V30.5H17.8643V34.5ZM17.8348 34.5H17.8643V30.5H17.8348V34.5ZM17.8053 34.5H17.8348V30.5H17.8053V34.5ZM17.7757 34.5H17.8053V30.5H17.7757V34.5ZM17.746 34.5H17.7757V30.5H17.746V34.5ZM17.7163 34.5H17.746V30.5H17.7163V34.5ZM17.6865 34.5H17.7163V30.5H17.6865V34.5ZM17.6566 34.5H17.6865V30.5H17.6566V34.5ZM17.6267 34.5H17.6566V30.5H17.6267V34.5ZM17.5967 34.5H17.6267V30.5H17.5967V34.5ZM17.5666 34.5H17.5967V30.5H17.5666V34.5ZM17.5365 34.5H17.5666V30.5H17.5365V34.5ZM17.5063 34.5H17.5365V30.5H17.5063V34.5ZM17.4761 34.5H17.5063V30.5H17.4761V34.5ZM17.4458 34.5H17.4761V30.5H17.4458V34.5ZM17.4155 34.5H17.4458V30.5H17.4155V34.5ZM17.385 34.5H17.4155V30.5H17.385V34.5ZM17.3546 34.5H17.385V30.5H17.3546V34.5ZM17.324 34.5H17.3546V30.5H17.324V34.5ZM17.2935 34.5H17.324V30.5H17.2935V34.5ZM17.2628 34.5H17.2935V30.5H17.2628V34.5ZM17.2321 34.5H17.2628V30.5H17.2321V34.5ZM17.2013 34.5H17.2321V30.5H17.2013V34.5ZM17.1705 34.5H17.2013V30.5H17.1705V34.5ZM17.1397 34.5H17.1705V30.5H17.1397V34.5ZM17.1087 34.5H17.1397V30.5H17.1087V34.5ZM17.0777 34.5H17.1087V30.5H17.0777V34.5ZM17.0467 34.5H17.0777V30.5H17.0467V34.5ZM17.0156 34.5H17.0467V30.5H17.0156V34.5ZM16.9844 34.5H17.0156V30.5H16.9844V34.5ZM16.9532 34.5H16.9844V30.5H16.9532V34.5ZM16.922 34.5H16.9532V30.5H16.922V34.5ZM16.8907 34.5H16.922V30.5H16.8907V34.5ZM16.8593 34.5H16.8907V30.5H16.8593V34.5ZM16.8279 34.5H16.8593V30.5H16.8279V34.5ZM16.7964 34.5H16.8279V30.5H16.7964V34.5ZM16.7649 34.5H16.7964V30.5H16.7649V34.5ZM16.7333 34.5H16.7649V30.5H16.7333V34.5ZM16.7017 34.5H16.7333V30.5H16.7017V34.5ZM16.67 34.5H16.7017V30.5H16.67V34.5ZM16.6383 34.5H16.67V30.5H16.6383V34.5ZM16.6065 34.5H16.6383V30.5H16.6065V34.5ZM16.5746 34.5H16.6065V30.5H16.5746V34.5ZM16.5428 34.5H16.5746V30.5H16.5428V34.5ZM16.5108 34.5H16.5428V30.5H16.5108V34.5ZM16.4788 34.5H16.5108V30.5H16.4788V34.5ZM16.4468 34.5H16.4788V30.5H16.4468V34.5ZM16.4147 34.5H16.4468V30.5H16.4147V34.5ZM16.3826 34.5H16.4147V30.5H16.3826V34.5ZM16.3504 34.5H16.3826V30.5H16.3504V34.5ZM16.3182 34.5H16.3504V30.5H16.3182V34.5ZM16.2859 34.5H16.3182V30.5H16.2859V34.5ZM16.2536 34.5H16.2859V30.5H16.2536V34.5ZM16.2213 34.5H16.2536V30.5H16.2213V34.5ZM16.1888 34.5H16.2213V30.5H16.1888V34.5ZM16.1564 34.5H16.1888V30.5H16.1564V34.5ZM16.1239 34.5H16.1564V30.5H16.1239V34.5ZM16.0913 34.5H16.1239V30.5H16.0913V34.5ZM16.0588 34.5H16.0913V30.5H16.0588V34.5ZM16.0261 34.5H16.0588V30.5H16.0261V34.5ZM15.9934 34.5H16.0261V30.5H15.9934V34.5ZM15.9607 34.5H15.9934V30.5H15.9607V34.5ZM15.9279 34.5H15.9607V30.5H15.9279V34.5ZM15.8951 34.5H15.9279V30.5H15.8951V34.5ZM15.8623 34.5H15.8951V30.5H15.8623V34.5ZM15.8294 34.5H15.8623V30.5H15.8294V34.5ZM15.7965 34.5H15.8294V30.5H15.7965V34.5ZM15.7635 34.5H15.7965V30.5H15.7635V34.5ZM15.7305 34.5H15.7635V30.5H15.7305V34.5ZM15.6974 34.5H15.7305V30.5H15.6974V34.5ZM15.6643 34.5H15.6974V30.5H15.6643V34.5ZM15.6312 34.5H15.6643V30.5H15.6312V34.5ZM15.598 34.5H15.6312V30.5H15.598V34.5ZM15.5648 34.5H15.598V30.5H15.5648V34.5ZM15.5315 34.5H15.5648V30.5H15.5315V34.5ZM15.4982 34.5H15.5315V30.5H15.4982V34.5ZM15.4649 34.5H15.4982V30.5H15.4649V34.5ZM15.4315 34.5H15.4649V30.5H15.4315V34.5ZM15.3981 34.5H15.4315V30.5H15.3981V34.5ZM15.3646 34.5H15.3981V30.5H15.3646V34.5ZM15.3312 34.5H15.3646V30.5H15.3312V34.5ZM15.2976 34.5H15.3312V30.5H15.2976V34.5ZM15.2641 34.5H15.2976V30.5H15.2641V34.5ZM15.2305 34.5H15.2641V30.5H15.2305V34.5ZM15.1968 34.5H15.2305V30.5H15.1968V34.5ZM15.1632 34.5H15.1968V30.5H15.1632V34.5ZM15.1295 34.5H15.1632V30.5H15.1295V34.5ZM15.0957 34.5H15.1295V30.5H15.0957V34.5ZM15.062 34.5H15.0957V30.5H15.062V34.5ZM15.0282 34.5H15.062V30.5H15.0282V34.5ZM14.9943 34.5H15.0282V30.5H14.9943V34.5ZM14.9605 34.5H14.9943V30.5H14.9605V34.5ZM14.9265 34.5H14.9605V30.5H14.9265V34.5ZM14.8926 34.5H14.9265V30.5H14.8926V34.5ZM14.8586 34.5H14.8926V30.5H14.8586V34.5ZM14.8246 34.5H14.8586V30.5H14.8246V34.5ZM14.7906 34.5H14.8246V30.5H14.7906V34.5ZM14.7565 34.5H14.7906V30.5H14.7565V34.5ZM14.7225 34.5H14.7565V30.5H14.7225V34.5ZM14.6883 34.5H14.7225V30.5H14.6883V34.5ZM14.6542 34.5H14.6883V30.5H14.6542V34.5ZM14.62 34.5H14.6542V30.5H14.62V34.5ZM14.5858 34.5H14.62V30.5H14.5858V34.5ZM14.5515 34.5H14.5858V30.5H14.5515V34.5ZM14.5173 34.5H14.5515V30.5H14.5173V34.5ZM14.483 34.5H14.5173V30.5H14.483V34.5ZM14.4486 34.5H14.483V30.5H14.4486V34.5ZM14.4143 34.5H14.4486V30.5H14.4143V34.5ZM14.3799 34.5H14.4143V30.5H14.3799V34.5ZM14.3455 34.5H14.3799V30.5H14.3455V34.5ZM14.3111 34.5H14.3455V30.5H14.3111V34.5ZM14.2766 34.5H14.3111V30.5H14.2766V34.5ZM14.2421 34.5H14.2766V30.5H14.2421V34.5ZM14.2076 34.5H14.2421V30.5H14.2076V34.5ZM14.173 34.5H14.2076V30.5H14.173V34.5ZM14.1385 34.5H14.173V30.5H14.1385V34.5ZM14.1039 34.5H14.1385V30.5H14.1039V34.5ZM14.0693 34.5H14.1039V30.5H14.0693V34.5ZM14.0346 34.5H14.0693V30.5H14.0346V34.5ZM14 34.5H14.0346V30.5H14V34.5ZM13.9653 34.5H14V30.5H13.9653V34.5ZM13.9306 34.5H13.9653V30.5H13.9306V34.5ZM13.8959 34.5H13.9306V30.5H13.8959V34.5ZM13.8611 34.5H13.8959V30.5H13.8611V34.5ZM13.8263 34.5H13.8611V30.5H13.8263V34.5ZM13.7915 34.5H13.8263V30.5H13.7915V34.5ZM13.7567 34.5H13.7915V30.5H13.7567V34.5ZM13.7219 34.5H13.7567V30.5H13.7219V34.5ZM13.687 34.5H13.7219V30.5H13.687V34.5ZM13.6522 34.5H13.687V30.5H13.6522V34.5ZM13.6173 34.5H13.6522V30.5H13.6173V34.5ZM13.5824 34.5H13.6173V30.5H13.5824V34.5ZM13.5474 34.5H13.5824V30.5H13.5474V34.5ZM13.5125 34.5H13.5474V30.5H13.5125V34.5ZM13.4775 34.5H13.5125V30.5H13.4775V34.5ZM13.4425 34.5H13.4775V30.5H13.4425V34.5ZM13.4075 34.5H13.4425V30.5H13.4075V34.5ZM13.3725 34.5H13.4075V30.5H13.3725V34.5ZM13.3374 34.5H13.3725V30.5H13.3374V34.5ZM13.3024 34.5H13.3374V30.5H13.3024V34.5ZM13.2673 34.5H13.3024V30.5H13.2673V34.5ZM13.2322 34.5H13.2673V30.5H13.2322V34.5ZM13.1971 34.5H13.2322V30.5H13.1971V34.5ZM13.162 34.5H13.1971V30.5H13.162V34.5ZM13.1269 34.5H13.162V30.5H13.1269V34.5ZM13.0917 34.5H13.1269V30.5H13.0917V34.5ZM13.0565 34.5H13.0917V30.5H13.0565V34.5ZM13.0214 34.5H13.0565V30.5H13.0214V34.5ZM12.9862 34.5H13.0214V30.5H12.9862V34.5ZM12.951 34.5H12.9862V30.5H12.951V34.5ZM12.9158 34.5H12.951V30.5H12.9158V34.5ZM12.8805 34.5H12.9158V30.5H12.8805V34.5ZM12.8453 34.5H12.8805V30.5H12.8453V34.5ZM12.81 34.5H12.8453V30.5H12.81V34.5ZM12.7748 34.5H12.81V30.5H12.7748V34.5ZM12.7395 34.5H12.7748V30.5H12.7395V34.5ZM12.7042 34.5H12.7395V30.5H12.7042V34.5ZM12.6689 34.5H12.7042V30.5H12.6689V34.5ZM12.6336 34.5H12.6689V30.5H12.6336V34.5ZM12.5983 34.5H12.6336V30.5H12.5983V34.5ZM12.563 34.5H12.5983V30.5H12.563V34.5ZM12.5276 34.5H12.563V30.5H12.5276V34.5ZM12.4923 34.5H12.5276V30.5H12.4923V34.5ZM12.457 34.5H12.4923V30.5H12.457V34.5ZM12.4216 34.5H12.457V30.5H12.4216V34.5ZM12.3862 34.5H12.4216V30.5H12.3862V34.5ZM12.3509 34.5H12.3862V30.5H12.3509V34.5ZM12.3155 34.5H12.3509V30.5H12.3155V34.5ZM12.2801 34.5H12.3155V30.5H12.2801V34.5ZM12.2447 34.5H12.2801V30.5H12.2447V34.5ZM12.2093 34.5H12.2447V30.5H12.2093V34.5ZM12.1739 34.5H12.2093V30.5H12.1739V34.5ZM12.1385 34.5H12.1739V30.5H12.1385V34.5ZM12.1031 34.5H12.1385V30.5H12.1031V34.5ZM12.0677 34.5H12.1031V30.5H12.0677V34.5ZM12.0323 34.5H12.0677V30.5H12.0323V34.5ZM11.9968 34.5H12.0323V30.5H11.9968V34.5ZM11.9614 34.5H11.9968V30.5H11.9614V34.5ZM11.926 34.5H11.9614V30.5H11.926V34.5ZM11.8905 34.5H11.926V30.5H11.8905V34.5ZM11.8551 34.5H11.8905V30.5H11.8551V34.5ZM11.8197 34.5H11.8551V30.5H11.8197V34.5ZM11.7842 34.5H11.8197V30.5H11.7842V34.5ZM11.7488 34.5H11.7842V30.5H11.7488V34.5ZM11.7134 34.5H11.7488V30.5H11.7134V34.5ZM11.6779 34.5H11.7134V30.5H11.6779V34.5ZM11.6425 34.5H11.6779V30.5H11.6425V34.5ZM11.607 34.5H11.6425V30.5H11.607V34.5ZM11.5716 34.5H11.607V30.5H11.5716V34.5ZM11.5361 34.5H11.5716V30.5H11.5361V34.5ZM11.5007 34.5H11.5361V30.5H11.5007V34.5ZM11.4653 34.5H11.5007V30.5H11.4653V34.5ZM11.4298 34.5H11.4653V30.5H11.4298V34.5ZM11.3944 34.5H11.4298V30.5H11.3944V34.5ZM11.359 34.5H11.3944V30.5H11.359V34.5ZM11.3236 34.5H11.359V30.5H11.3236V34.5ZM11.2881 34.5H11.3236V30.5H11.2881V34.5ZM11.2527 34.5H11.2881V30.5H11.2527V34.5ZM11.2173 34.5H11.2527V30.5H11.2173V34.5ZM11.1819 34.5H11.2173V30.5H11.1819V34.5ZM11.1465 34.5H11.1819V30.5H11.1465V34.5ZM11.1111 34.5H11.1465V30.5H11.1111V34.5ZM11.0757 34.5H11.1111V30.5H11.0757V34.5ZM11.0403 34.5H11.0757V30.5H11.0403V34.5ZM11.0049 34.5H11.0403V30.5H11.0049V34.5ZM10.9695 34.5H11.0049V30.5H10.9695V34.5ZM10.9341 34.5H10.9695V30.5H10.9341V34.5ZM10.8988 34.5H10.9341V30.5H10.8988V34.5ZM10.8634 34.5H10.8988V30.5H10.8634V34.5ZM10.8281 34.5H10.8634V30.5H10.8281V34.5ZM10.7927 34.5H10.8281V30.5H10.7927V34.5ZM10.7574 34.5H10.7927V30.5H10.7574V34.5ZM10.7221 34.5H10.7574V30.5H10.7221V34.5ZM10.6868 34.5H10.7221V30.5H10.6868V34.5ZM10.6515 34.5H10.6868V30.5H10.6515V34.5ZM10.6162 34.5H10.6515V30.5H10.6162V34.5ZM10.5809 34.5H10.6162V30.5H10.5809V34.5ZM10.5456 34.5H10.5809V30.5H10.5456V34.5ZM10.5104 34.5H10.5456V30.5H10.5104V34.5ZM10.4751 34.5H10.5104V30.5H10.4751V34.5ZM10.4399 34.5H10.4751V30.5H10.4399V34.5ZM10.4046 34.5H10.4399V30.5H10.4046V34.5ZM10.3694 34.5H10.4046V30.5H10.3694V34.5ZM10.3342 34.5H10.3694V30.5H10.3342V34.5ZM10.299 34.5H10.3342V30.5H10.299V34.5ZM10.2639 34.5H10.299V30.5H10.2639V34.5ZM10.2287 34.5H10.2639V30.5H10.2287V34.5ZM10.1935 34.5H10.2287V30.5H10.1935V34.5ZM10.1584 34.5H10.1935V30.5H10.1584V34.5ZM10.1233 34.5H10.1584V30.5H10.1233V34.5ZM10.0882 34.5H10.1233V30.5H10.0882V34.5ZM10.0531 34.5H10.0882V30.5H10.0531V34.5ZM10.018 34.5H10.0531V30.5H10.018V34.5ZM9.98297 34.5H10.018V30.5H9.98297V34.5ZM9.94793 34.5H9.98297V30.5H9.94793V34.5ZM9.91291 34.5H9.94793V30.5H9.91291V34.5ZM9.8779 34.5H9.91291V30.5H9.8779V34.5ZM9.84291 34.5H9.8779V30.5H9.84291V34.5ZM9.80794 34.5H9.84291V30.5H9.80794V34.5ZM9.77299 34.5H9.80794V30.5H9.77299V34.5ZM9.73806 34.5H9.77299V30.5H9.73806V34.5ZM9.70315 34.5H9.73806V30.5H9.70315V34.5ZM9.66825 34.5H9.70315V30.5H9.66825V34.5ZM9.63338 34.5H9.66825V30.5H9.63338V34.5ZM9.59852 34.5H9.63338V30.5H9.59852V34.5ZM9.56369 34.5H9.59852V30.5H9.56369V34.5ZM9.52887 34.5H9.56369V30.5H9.52887V34.5ZM9.49408 34.5H9.52887V30.5H9.49408V34.5ZM9.45931 34.5H9.49408V30.5H9.45931V34.5ZM9.42456 34.5H9.45931V30.5H9.42456V34.5ZM9.38983 34.5H9.42456V30.5H9.38983V34.5ZM9.35513 34.5H9.38983V30.5H9.35513V34.5ZM9.32044 34.5H9.35513V30.5H9.32044V34.5ZM9.28579 34.5H9.32044V30.5H9.28579V34.5ZM9.25115 34.5H9.28579V30.5H9.25115V34.5ZM9.21654 34.5H9.25115V30.5H9.21654V34.5ZM9.18195 34.5H9.21654V30.5H9.18195V34.5ZM9.14739 34.5H9.18195V30.5H9.14739V34.5ZM9.11285 34.5H9.14739V30.5H9.11285V34.5ZM9.07834 34.5H9.11285V30.5H9.07834V34.5ZM9.04385 34.5H9.07834V30.5H9.04385V34.5ZM9.00939 34.5H9.04385V30.5H9.00939V34.5ZM8.97495 34.5H9.00939V30.5H8.97495V34.5ZM8.94055 34.5H8.97495V30.5H8.94055V34.5ZM8.90616 34.5H8.94055V30.5H8.90616V34.5ZM8.87181 34.5H8.90616V30.5H8.87181V34.5ZM8.83748 34.5H8.87181V30.5H8.83748V34.5ZM8.80319 34.5H8.83748V30.5H8.80319V34.5ZM8.76892 34.5H8.80319V30.5H8.76892V34.5ZM8.73468 34.5H8.76892V30.5H8.73468V34.5ZM8.70046 34.5H8.73468V30.5H8.70046V34.5ZM8.66628 34.5H8.70046V30.5H8.66628V34.5ZM8.63213 34.5H8.66628V30.5H8.63213V34.5ZM8.59801 34.5H8.63213V30.5H8.59801V34.5ZM8.56391 34.5H8.59801V30.5H8.56391V34.5ZM8.52985 34.5H8.56391V30.5H8.52985V34.5ZM8.49582 34.5H8.52985V30.5H8.49582V34.5ZM8.46182 34.5H8.49582V30.5H8.46182V34.5ZM8.42786 34.5H8.46182V30.5H8.42786V34.5ZM8.39392 34.5H8.42786V30.5H8.39392V34.5ZM8.36002 34.5H8.39392V30.5H8.36002V34.5ZM8.32615 34.5H8.36002V30.5H8.32615V34.5ZM8.29232 34.5H8.32615V30.5H8.29232V34.5ZM8.25851 34.5H8.29232V30.5H8.25851V34.5ZM8.22474 34.5H8.25851V30.5H8.22474V34.5ZM8.19101 34.5H8.22474V30.5H8.19101V34.5ZM8.15731 34.5H8.19101V30.5H8.15731V34.5ZM8.12365 34.5H8.15731V30.5H8.12365V34.5ZM8.09002 34.5H8.12365V30.5H8.09002V34.5ZM8.05643 34.5H8.09002V30.5H8.05643V34.5ZM8.02287 34.5H8.05643V30.5H8.02287V34.5ZM7.98935 34.5H8.02287V30.5H7.98935V34.5ZM7.95586 34.5H7.98935V30.5H7.95586V34.5ZM7.92242 34.5H7.95586V30.5H7.92242V34.5ZM7.88901 34.5H7.92242V30.5H7.88901V34.5ZM7.85563 34.5H7.88901V30.5H7.85563V34.5ZM7.8223 34.5H7.85563V30.5H7.8223V34.5ZM7.78901 34.5H7.8223V30.5H7.78901V34.5ZM7.75575 34.5H7.78901V30.5H7.75575V34.5ZM7.72253 34.5H7.75575V30.5H7.72253V34.5ZM7.68935 34.5H7.72253V30.5H7.68935V34.5ZM7.65622 34.5H7.68935V30.5H7.65622V34.5ZM7.62312 34.5H7.65622V30.5H7.62312V34.5ZM7.59006 34.5H7.62312V30.5H7.59006V34.5ZM7.55704 34.5H7.59006V30.5H7.55704V34.5ZM7.52407 34.5H7.55704V30.5H7.52407V34.5ZM7.49114 34.5H7.52407V30.5H7.49114V34.5ZM7.45825 34.5H7.49114V30.5H7.45825V34.5ZM7.4254 34.5H7.45825V30.5H7.4254V34.5ZM7.39259 34.5H7.4254V30.5H7.39259V34.5ZM7.35983 34.5H7.39259V30.5H7.35983V34.5ZM7.32711 34.5H7.35983V30.5H7.32711V34.5ZM7.29443 34.5H7.32711V30.5H7.29443V34.5ZM7.2618 34.5H7.29443V30.5H7.2618V34.5ZM7.22921 34.5H7.2618V30.5H7.22921V34.5ZM7.19667 34.5H7.22921V30.5H7.19667V34.5ZM7.16417 34.5H7.19667V30.5H7.16417V34.5ZM7.13172 34.5H7.16417V30.5H7.13172V34.5ZM7.09931 34.5H7.13172V30.5H7.09931V34.5ZM7.06695 34.5H7.09931V30.5H7.06695V34.5ZM7.03464 34.5H7.06695V30.5H7.03464V34.5ZM7.00237 34.5H7.03464V30.5H7.00237V34.5ZM6.97015 34.5H7.00237V30.5H6.97015V34.5ZM6.93798 34.5H6.97015V30.5H6.93798V34.5ZM6.90585 34.5H6.93798V30.5H6.90585V34.5ZM6.87378 34.5H6.90585V30.5H6.87378V34.5ZM6.84175 34.5H6.87378V30.5H6.84175V34.5ZM6.80977 34.5H6.84175V30.5H6.80977V34.5ZM6.77784 34.5H6.80977V30.5H6.77784V34.5ZM6.74596 34.5H6.77784V30.5H6.74596V34.5ZM6.71413 34.5H6.74596V30.5H6.71413V34.5ZM6.68235 34.5H6.71413V30.5H6.68235V34.5ZM6.65062 34.5H6.68235V30.5H6.65062V34.5ZM6.61894 34.5H6.65062V30.5H6.61894V34.5ZM6.58732 34.5H6.61894V30.5H6.58732V34.5ZM6.55574 34.5H6.58732V30.5H6.55574V34.5ZM6.52422 34.5H6.55574V30.5H6.52422V34.5ZM6.49275 34.5H6.52422V30.5H6.49275V34.5ZM6.46133 34.5H6.49275V30.5H6.46133V34.5ZM6.42997 34.5H6.46133V30.5H6.42997V34.5ZM6.39865 34.5H6.42997V30.5H6.39865V34.5ZM6.3674 34.5H6.39865V30.5H6.3674V34.5ZM6.33619 34.5H6.3674V30.5H6.33619V34.5ZM6.30504 34.5H6.33619V30.5H6.30504V34.5ZM6.27395 34.5H6.30504V30.5H6.27395V34.5ZM6.24291 34.5H6.27395V30.5H6.24291V34.5ZM6.21193 34.5H6.24291V30.5H6.21193V34.5ZM6.181 34.5H6.21193V30.5H6.181V34.5ZM6.15013 34.5H6.181V30.5H6.15013V34.5ZM6.11932 34.5H6.15013V30.5H6.11932V34.5ZM6.08856 34.5H6.11932V30.5H6.08856V34.5ZM6.05786 34.5H6.08856V30.5H6.05786V34.5ZM6.02722 34.5H6.05786V30.5H6.02722V34.5ZM5.99663 34.5H6.02722V30.5H5.99663V34.5ZM5.9661 34.5H5.99663V30.5H5.9661V34.5ZM5.93564 34.5H5.9661V30.5H5.93564V34.5ZM5.90523 34.5H5.93564V30.5H5.90523V34.5ZM5.87488 34.5H5.90523V30.5H5.87488V34.5ZM5.84459 34.5H5.87488V30.5H5.84459V34.5ZM5.81436 34.5H5.84459V30.5H5.81436V34.5ZM5.78419 34.5H5.81436V30.5H5.78419V34.5ZM5.75408 34.5H5.78419V30.5H5.75408V34.5ZM5.72403 34.5H5.75408V30.5H5.72403V34.5ZM5.69405 34.5H5.72403V30.5H5.69405V34.5ZM5.66412 34.5H5.69405V30.5H5.66412V34.5ZM5.63426 34.5H5.66412V30.5H5.63426V34.5ZM5.60446 34.5H5.63426V30.5H5.60446V34.5ZM5.57473 34.5H5.60446V30.5H5.57473V34.5ZM5.54505 34.5H5.57473V30.5H5.54505V34.5ZM5.51544 34.5H5.54505V30.5H5.51544V34.5ZM5.4859 34.5H5.51544V30.5H5.4859V34.5ZM5.45642 34.5H5.4859V30.5H5.45642V34.5ZM5.427 34.5H5.45642V30.5H5.427V34.5ZM5.39765 34.5H5.427V30.5H5.39765V34.5ZM5.36836 34.5H5.39765V30.5H5.36836V34.5ZM5.33914 34.5H5.36836V30.5H5.33914V34.5ZM5.30998 34.5H5.33914V30.5H5.30998V34.5ZM5.2809 34.5H5.30998V30.5H5.2809V34.5ZM5.25187 34.5H5.2809V30.5H5.25187V34.5ZM5.22292 34.5H5.25187V30.5H5.22292V34.5ZM5.19403 34.5H5.22292V30.5H5.19403V34.5ZM5.16521 34.5H5.19403V30.5H5.16521V34.5ZM5.13646 34.5H5.16521V30.5H5.13646V34.5ZM5.10777 34.5H5.13646V30.5H5.10777V34.5ZM5.07916 34.5H5.10777V30.5H5.07916V34.5ZM5.05061 34.5H5.07916V30.5H5.05061V34.5ZM5.02214 34.5H5.05061V30.5H5.02214V34.5ZM4.99373 34.5H5.02214V30.5H4.99373V34.5ZM4.96539 34.5H4.99373V30.5H4.96539V34.5ZM4.93713 34.5H4.96539V30.5H4.93713V34.5ZM4.90893 34.5H4.93713V30.5H4.90893V34.5ZM4.88081 34.5H4.90893V30.5H4.88081V34.5ZM4.85276 34.5H4.88081V30.5H4.85276V34.5ZM4.82478 34.5H4.85276V30.5H4.82478V34.5ZM4.79687 34.5H4.82478V30.5H4.79687V34.5ZM4.76904 34.5H4.79687V30.5H4.76904V34.5ZM4.74127 34.5H4.76904V30.5H4.74127V34.5ZM4.71358 34.5H4.74127V30.5H4.71358V34.5ZM4.68597 34.5H4.71358V30.5H4.68597V34.5ZM4.65843 34.5H4.68597V30.5H4.65843V34.5ZM4.63096 34.5H4.65843V30.5H4.63096V34.5ZM4.60357 34.5H4.63096V30.5H4.60357V34.5ZM4.57625 34.5H4.60357V30.5H4.57625V34.5ZM4.54901 34.5H4.57625V30.5H4.54901V34.5ZM4.52184 34.5H4.54901V30.5H4.52184V34.5ZM4.49475 34.5H4.52184V30.5H4.49475V34.5ZM4.46774 34.5H4.49475V30.5H4.46774V34.5ZM4.4408 34.5H4.46774V30.5H4.4408V34.5ZM4.41394 34.5H4.4408V30.5H4.41394V34.5ZM4.38716 34.5H4.41394V30.5H4.38716V34.5ZM4.36045 34.5H4.38716V30.5H4.36045V34.5ZM4.33383 34.5H4.36045V30.5H4.33383V34.5ZM4.30728 34.5H4.33383V30.5H4.30728V34.5ZM4.28081 34.5H4.30728V30.5H4.28081V34.5ZM4.25442 34.5H4.28081V30.5H4.25442V34.5ZM4.22811 34.5H4.25442V30.5H4.22811V34.5ZM4.20188 34.5H4.22811V30.5H4.20188V34.5ZM4.17573 34.5H4.20188V30.5H4.17573V34.5ZM4.14966 34.5H4.17573V30.5H4.14966V34.5ZM4.12367 34.5H4.14966V30.5H4.12367V34.5ZM4.09776 34.5H4.12367V30.5H4.09776V34.5ZM4.07194 34.5H4.09776V30.5H4.07194V34.5ZM4.04619 34.5H4.07194V30.5H4.04619V34.5ZM4.02053 34.5H4.04619V30.5H4.02053V34.5ZM3.99495 34.5H4.02053V30.5H3.99495V34.5ZM0 30.5C0 32.7076 1.78429 34.5 3.99495 34.5V30.5C3.99254 30.5 3.99235 30.4998 3.99373 30.5001C3.99498 30.5003 3.99643 30.5008 3.99775 30.5013C4.00019 30.5024 4.00047 30.503 3.99969 30.5022C3.99892 30.5014 3.99911 30.5013 3.99965 30.5026C3.99997 30.5033 4.00016 30.504 4.00024 30.5044C4.00033 30.5048 4 30.5036 4 30.5H0ZM0 4V30.5H4V4H0ZM4 0C1.79086 0 0 1.79086 0 4H4V0ZM48 0H4V4H48V0ZM52 4C52 1.79086 50.2091 0 48 0V4H52ZM52 30.5833V4H48V30.5833H52ZM48.0833 34.5C50.2465 34.5 52 32.7464 52 30.5833H48C48 30.5373 48.0373 30.5 48.0833 30.5V34.5ZM50.0833 34.5V32.5H46.0833V34.5H50.0833ZM50 30.5833C50 31.6419 49.1419 32.5 48.0833 32.5V36.5C51.351 36.5 54 33.851 54 30.5833H50ZM50 4V30.5833H54V4H50ZM48 2C49.1046 2 50 2.89543 50 4H54C54 0.686291 51.3137 -2 48 -2V2ZM4 2H48V-2H4V2ZM21.6666 16.5001V34.2365H25.6666V16.5001H21.6666ZM26.6666 11.5001C23.9052 11.5001 21.6666 13.7387 21.6666 16.5001H25.6666C25.6666 15.9478 26.1143 15.5001 26.6666 15.5001V11.5001ZM43.1666 11.5001H26.6666V15.5001H43.1666V11.5001ZM48.1666 16.5001C48.1666 13.7387 45.928 11.5001 43.1666 11.5001V15.5001C43.7189 15.5001 44.1666 15.9478 44.1666 16.5001H48.1666ZM48.1666 34.2365V16.5001H44.1666V34.2365H48.1666ZM46.0296 38.2444C47.441 37.3325 48.1666 35.7838 48.1666 34.2365H44.1666C44.1666 34.5617 44.0202 34.7804 43.8588 34.8847L46.0296 38.2444ZM34.9166 42.1667C39.4564 42.1667 44.013 39.5473 46.0296 38.2444L43.8588 34.8847C41.8863 36.1591 38.1929 38.1667 34.9166 38.1667V42.1667ZM23.8037 38.2444C25.8203 39.5473 30.3768 42.1667 34.9166 42.1667V38.1667C31.6403 38.1667 27.9469 36.1591 25.9744 34.8847L23.8037 38.2444ZM21.6666 34.2365C21.6666 35.7838 22.3923 37.3325 23.8037 38.2444L25.9744 34.8846C25.813 34.7804 25.6666 34.5617 25.6666 34.2365H21.6666Z" fill="white" mask="url(#path-3-inside-1_29_46)"/>
<path d="M31 26L33.7718 30.4122C34.1973 31.0897 35.2066 31.0179 35.5321 30.2871L39 22.5" stroke="white" stroke-width="2" stroke-miterlimit="16" stroke-linecap="round" stroke-linejoin="round"/>
</svg>
