<svg width="72" height="32" viewBox="0 0 72 32" fill="none" xmlns="http://www.w3.org/2000/svg">
<path d="M7.04894 16.927C7.3483 16.0057 8.6517 16.0057 8.95106 16.9271L9.5716 18.8369C9.70547 19.2489 10.0894 19.5279 10.5227 19.5279H12.5308C13.4995 19.5279 13.9023 20.7675 13.1186 21.3369L11.494 22.5172C11.1435 22.7719 10.9968 23.2232 11.1307 23.6353L11.7512 25.5451C12.0506 26.4664 10.9961 27.2325 10.2124 26.6631L8.58778 25.4828C8.2373 25.2281 7.7627 25.2281 7.41221 25.4828L5.78761 26.6631C5.0039 27.2325 3.94942 26.4664 4.24877 25.5451L4.86932 23.6353C5.00319 23.2232 4.85653 22.7719 4.50604 22.5172L2.88144 21.3369C2.09773 20.7675 2.50051 19.5279 3.46923 19.5279H5.47735C5.91057 19.5279 6.29453 19.2489 6.4284 18.8369L7.04894 16.927Z" stroke="white" stroke-width="2"/>
<path d="M27.0489 9.92705C27.3483 9.00574 28.6517 9.00574 28.9511 9.92705L30.4697 14.6008C30.6035 15.0128 30.9875 15.2918 31.4207 15.2918H36.335C37.3037 15.2918 37.7065 16.5314 36.9228 17.1008L32.947 19.9894C32.5966 20.244 32.4499 20.6954 32.5838 21.1074L34.1024 25.7812C34.4017 26.7025 33.3472 27.4686 32.5635 26.8992L28.5878 24.0106C28.2373 23.756 27.7627 23.756 27.4122 24.0106L23.4365 26.8992C22.6528 27.4686 21.5983 26.7025 21.8976 25.7812L23.4162 21.1074C23.5501 20.6954 23.4034 20.244 23.053 19.9894L19.0772 17.1008C18.2935 16.5314 18.6963 15.2918 19.665 15.2918H24.5793C25.0125 15.2918 25.3965 15.0128 25.5303 14.6008L27.0489 9.92705Z" stroke="white" stroke-width="2"/>
<path d="M55.0489 2.92705C55.3483 2.00574 56.6517 2.00574 56.9511 2.92705L59.3677 10.3647C59.5016 10.7768 59.8855 11.0557 60.3188 11.0557H68.1392C69.1079 11.0557 69.5107 12.2953 68.727 12.8647L62.4001 17.4615C62.0496 17.7161 61.903 18.1675 62.0369 18.5795L64.4535 26.0172C64.7529 26.9385 63.6984 27.7047 62.9147 27.1353L56.5878 22.5385C56.2373 22.2839 55.7627 22.2839 55.4122 22.5385L49.0853 27.1353C48.3016 27.7047 47.2471 26.9385 47.5465 26.0172L49.9631 18.5795C50.097 18.1675 49.9504 17.7161 49.5999 17.4615L43.273 12.8647C42.4893 12.2953 42.8921 11.0557 43.8608 11.0557H51.6812C52.1145 11.0557 52.4984 10.7768 52.6323 10.3647L55.0489 2.92705Z" stroke="white" stroke-width="2"/>
</svg>
