<svg width="42" height="60" viewBox="0 0 42 60" fill="none" xmlns="http://www.w3.org/2000/svg">
<path d="M7.15385 13.1893L5.92279 11.63C5.56742 11.1799 5.09123 10.8402 4.54992 10.6508L4.2595 10.5491C3.48078 10.2766 2.61717 10.4142 1.96179 10.9154C1.35559 11.379 1 12.0985 1 12.8617V37.9468C1 39.5831 1.17573 41.2146 1.52416 42.8133L1.81294 44.1382C2.59435 47.7236 4.429 50.9937 7.08156 53.5292L7.32933 53.7661C9.76274 56.0921 12.8229 57.6563 16.1335 58.2661C18.7128 58.7412 21.3664 58.6227 23.8929 57.9194L24.521 57.7446C29.0513 56.4835 32.9959 53.6735 35.6679 49.8038L38.3965 45.8521L38.4485 45.7503C40.1255 42.4725 41 38.8434 41 35.1615V32.2632C41 31.779 40.9249 31.2978 40.7773 30.8366C40.3222 29.4145 39.216 28.2949 37.7995 27.8227L37.568 27.7456M7.15385 13.1893L8.21894 32.4793M7.15385 13.1893L8.21894 7.39053L9.53786 2.6424C9.80749 1.67175 10.6913 1 11.6987 1C12.131 1 12.554 1.12494 12.917 1.35978L13.2805 1.59501C13.9876 2.05252 14.5179 2.73705 14.7842 3.53601L15.2025 4.791C15.5902 5.95391 15.6861 7.19428 15.4818 8.40296L14.3728 14.9645M14.3728 14.9645L13.426 29.5207M14.3728 14.9645L20.1829 6.30031C20.7675 5.42846 21.7482 4.90533 22.7979 4.90533C23.6877 4.90533 24.5358 5.28174 25.1327 5.94149L25.2057 6.02217C25.9777 6.87542 26.2648 8.06173 25.9683 9.17354L25.6681 10.2992C25.5545 10.7254 25.3903 11.1365 25.1791 11.5238L19.1065 22.6568M19.1065 22.6568L17.213 27.7456M19.1065 22.6568L21.5508 21.861C23.3028 21.2906 25.1338 21 26.9763 21H27.5243C29.0038 21 30.474 21.2333 31.8808 21.6913L33.7667 22.3054C34.4777 22.5368 35.1294 22.9212 35.6761 23.4314L36.9644 24.6338C37.8183 25.4308 38.062 26.687 37.568 27.7456M37.568 27.7456L34.8462 29.5207M34.8462 29.5207L31.5325 28.929L29.3281 28.7594C27.7592 28.6387 26.1914 29.0059 24.8393 29.8108L23.8613 30.393C22.6416 31.1189 21.7837 32.3246 21.4975 33.7148C21.2529 34.9026 21.4439 36.1388 22.0355 37.1974L22.4101 37.8678C23.0239 38.9662 24.0397 39.7838 25.2438 40.1487C26.5373 40.5406 27.9355 40.3764 29.1029 39.6954L29.3749 39.5368C30.7477 38.7359 31.7142 37.3879 32.032 35.8306L32.3324 34.3588C32.5852 33.1199 33.098 31.9487 33.8368 30.9226L34.8462 29.5207Z" stroke="white" stroke-width="2" stroke-miterlimit="16" stroke-linecap="round" stroke-linejoin="round"/>
</svg>
