<svg width="48" height="57" viewBox="0 0 48 57" fill="none" xmlns="http://www.w3.org/2000/svg">
<path d="M1 4C1 2.34315 2.34315 1 4 1H23.9778H35.7857C37.4426 1 38.7857 2.34315 38.7857 4V15.683V52.2143C38.7857 53.8711 37.4426 55.2143 35.7857 55.2143H4C2.34314 55.2143 1 53.8711 1 52.2143V4Z" stroke="white" stroke-width="2"/>
<path d="M17.4286 13.5C17.4286 12.9477 17.8763 12.5 18.4286 12.5H24.4218H27.9286C28.4809 12.5 28.9286 12.9477 28.9286 13.5V16.5045V26.2857C28.9286 26.838 28.4809 27.2857 27.9286 27.2857H18.4286C17.8763 27.2857 17.4286 26.838 17.4286 26.2857V13.5Z" stroke="white" stroke-width="2"/>
<path d="M9.21423 1H32.192H43.9999C45.6568 1 46.9999 2.34315 46.9999 4V15.683V52.2143C46.9999 53.8711 45.6568 55.2143 43.9999 55.2143H32.192H9.21423" stroke="white" stroke-width="2"/>
</svg>
