<svg width="24" height="24" viewBox="0 0 24 24" fill="none" xmlns="http://www.w3.org/2000/svg">
<circle cx="12" cy="12" r="11" stroke="white" stroke-width="2"/>
<path d="M12 10.5C8.07528 10.5 2 11.5 2 11.5V14C2 14 5.95681 11.9962 8.19048 13C9.2981 13.4978 9.89353 13.9925 10.5714 15C12.1026 17.2756 10 22 10 22H14C14 22 11.8974 17.2756 13.4286 15C14.1065 13.9925 14.7019 13.4978 15.8095 13C18.0432 11.9962 22 14 22 14V11.5C22 11.5 15.9247 10.5 12 10.5Z" fill="white"/>
<circle cx="12" cy="12" r="11" stroke="white" stroke-width="2"/>
</svg>
