<svg width="30" height="12" viewBox="0 0 30 12" fill="none" xmlns="http://www.w3.org/2000/svg">
<rect y="6" width="6" height="6" fill="white"/>
<rect y="6" width="6" height="6" fill="white"/>
<rect y="6" width="6" height="6" fill="white"/>
<rect y="6" width="6" height="6" fill="white"/>
<rect x="6" width="6" height="6" fill="white"/>
<rect x="6" width="6" height="6" fill="white"/>
<rect x="6" width="6" height="6" fill="white"/>
<rect x="6" width="6" height="6" fill="white"/>
<rect x="12" y="6" width="6" height="6" fill="white"/>
<rect x="12" y="6" width="6" height="6" fill="white"/>
<rect x="12" y="6" width="6" height="6" fill="white"/>
<rect x="12" y="6" width="6" height="6" fill="white"/>
<rect x="18" width="6" height="6" fill="white"/>
<rect x="18" width="6" height="6" fill="white"/>
<rect x="18" width="6" height="6" fill="white"/>
<rect x="18" width="6" height="6" fill="white"/>
<rect x="24" y="6" width="6" height="6" fill="white"/>
<rect x="24" y="6" width="6" height="6" fill="white"/>
<rect x="24" y="6" width="6" height="6" fill="white"/>
<rect x="24" y="6" width="6" height="6" fill="white"/>
</svg>
